<svg width="200" height="45" viewBox="0 0 200 45" fill="none" xmlns="http://www.w3.org/2000/svg">
<g clip-path="url(#clip0_1192_12738)">
<g clip-path="url(#clip1_1192_12738)">
<path d="M10.8639 10.2857C11.9765 10.2857 13.0044 10.3728 13.9474 10.634C14.8905 10.8082 15.6641 11.1675 16.3528 11.6029C17.0416 12.0384 17.5502 12.6589 17.8999 13.4536C18.239 14.2483 18.4191 15.2172 18.4191 16.2732C18.4191 17.5034 18.1648 18.5594 17.5608 19.3541C17.0416 20.1488 16.1939 20.8564 15.1554 21.3789C16.6177 21.8144 17.7304 22.6091 18.4085 23.6651C19.0867 24.7211 19.5212 26.0383 19.5212 27.5407C19.5212 28.7708 19.2668 29.8268 18.8324 30.7086C18.4085 31.5904 17.7198 32.3851 16.9462 32.9077C16.1727 33.4411 15.2296 33.8766 14.2017 34.1378C13.1739 34.3991 12.146 34.5733 11.1182 34.5733L-0.368347 34.5951V10.2857H10.8639ZM10.1751 20.1488C11.1182 20.1488 11.8917 19.8875 12.4851 19.4412C13.0785 18.9948 13.3434 18.211 13.3434 17.2421C13.3434 16.7087 13.2587 16.1861 13.0891 15.8378C12.9196 15.4894 12.6653 15.2172 12.3156 14.956C11.9765 14.7818 11.6268 14.6076 11.203 14.5205C10.7791 14.4334 10.3446 14.4334 9.83602 14.4334H4.86629V20.1597C4.86629 20.1488 10.1751 20.1488 10.1751 20.1488ZM10.4294 30.5453C10.9486 30.5453 11.4573 30.4582 11.8917 30.3711C12.3156 30.284 12.75 30.1099 13.0891 29.8377C13.4282 29.5655 13.6931 29.3043 13.9474 28.8688C14.117 28.4333 14.2865 27.8999 14.2865 27.2794C14.2865 26.0492 13.9474 25.1674 13.2587 24.5469C12.5699 24.0135 11.6268 23.7522 10.5142 23.7522H4.86629V30.5344H10.4294V30.5453Z" fill="black"/>
<path d="M26.9715 29.9316C27.687 30.6268 28.7547 30.9691 30.1747 30.9691C31.1544 30.9691 32.046 30.7124 32.7615 30.2739C33.4769 29.7498 33.9172 29.2363 34.0934 28.7122H38.4523C37.7368 30.7873 36.6691 32.2633 35.2491 33.2153C33.8292 34.0817 32.134 34.5951 30.0866 34.5951C28.6667 34.5951 27.4118 34.3384 26.256 33.8998C25.1002 33.472 24.2086 32.8623 23.4051 31.9959C22.6015 31.2151 21.9851 30.2632 21.6219 29.1401C21.1816 28.017 20.9944 26.8083 20.9944 25.4178C20.9944 24.1236 21.1706 22.9043 21.6219 21.7812C22.0732 20.6581 22.6896 19.7061 23.4931 18.8398C24.2967 18.059 25.2764 17.3637 26.3441 16.9359C27.4999 16.508 28.6557 16.2406 30.0866 16.2406C31.6057 16.2406 32.9376 16.4973 34.0934 17.107C35.2491 17.7167 36.1408 18.4012 36.8562 19.4387C37.5717 20.3907 38.1001 21.5138 38.4633 22.7224C38.6395 23.9311 38.7275 25.1504 38.6395 26.5302H25.7277C25.7277 27.9421 26.256 29.2363 26.9715 29.9316ZM32.5853 20.8399C31.9579 20.2303 30.9782 19.888 29.8225 19.888C29.0189 19.888 28.4025 20.0591 27.8631 20.3158C27.3238 20.5725 26.9715 20.9255 26.6193 21.2678C26.267 21.61 26.0799 22.0486 25.9918 22.4764C25.9038 22.9043 25.8157 23.2572 25.8157 23.5995H33.8292C33.6531 22.316 33.2018 21.4496 32.5853 20.8399ZM24.748 11.759H34.7208V14.0907H24.748V11.759Z" fill="black"/>
<path d="M44.917 10.2857V19.4085H45.0028C45.6137 18.3563 46.3855 17.6512 47.3394 17.2173C48.2933 16.7834 49.1615 16.5122 50.1155 16.5122C51.4124 16.5122 52.4521 16.6857 53.2345 17.0437C54.017 17.3908 54.7137 17.9224 55.1424 18.5407C55.5711 19.159 55.9249 19.94 56.0964 20.8187C56.2678 21.6973 56.3536 22.6627 56.3536 23.8017V34.5951H51.5839V24.6804C51.5839 23.1834 51.3267 22.1312 50.8872 21.437C50.4477 20.7427 49.6867 20.3739 48.5613 20.3739C47.2644 20.3739 46.3104 20.8078 45.7852 21.5129C45.1743 22.3048 44.917 23.6173 44.917 25.3746V34.5951H40.1473V10.2857H44.917Z" fill="black"/>
<path d="M59.8194 19.2303C60.3408 18.4432 60.9368 17.9256 61.7137 17.3973C62.4906 16.966 63.3527 16.6102 64.2999 16.4376C65.247 16.2651 66.1942 16.1789 67.1414 16.1789C68.0035 16.1789 68.8655 16.2651 69.8127 16.3514C70.6747 16.4376 71.5368 16.6964 72.2285 17.0522C73.0055 17.3973 73.5163 17.9256 74.0378 18.5402C74.4635 19.1548 74.7295 20.0282 74.7295 21.074V30.239C74.7295 31.0261 74.8147 31.8132 74.8998 32.5033C74.985 33.2041 75.2404 33.808 75.5064 34.1638H70.6854C70.5151 33.9913 70.43 33.6354 70.3448 33.3767C70.2597 33.1179 70.2597 32.7621 70.2597 32.5033C69.4828 33.2904 68.6207 33.808 67.5884 34.1638C66.5561 34.5088 65.5238 34.5951 64.4914 34.5951C63.6294 34.5951 62.9376 34.5088 62.1714 34.25C61.4796 34.0775 60.8836 33.7217 60.277 33.2904C59.7555 32.8591 59.3298 32.3308 58.9892 31.6299C58.7338 30.9291 58.5635 30.239 58.5635 29.2794C58.5635 28.3198 58.7338 27.4464 59.085 26.8318C59.4256 26.2172 59.8619 25.6997 60.3728 25.2576C60.8943 24.9125 61.5754 24.5567 62.2671 24.3842C62.9589 24.2117 63.64 24.0392 64.4169 23.9529C65.1087 23.8667 65.7898 23.7804 66.4816 23.6941C67.1733 23.6079 67.7693 23.5216 68.2908 23.4354C68.8123 23.2628 69.238 23.0903 69.5786 22.8208C69.9191 22.562 70.0043 22.2062 70.0043 21.6886C70.0043 21.1603 69.9191 20.729 69.7488 20.4702C69.5786 20.2115 69.3231 19.9419 69.0571 19.7694C68.8017 19.5969 68.4504 19.5106 68.1099 19.4243C67.7693 19.3381 67.333 19.3381 66.9073 19.3381C65.9601 19.3381 65.2683 19.5106 64.7575 19.9527C64.236 20.384 63.8955 21.0848 63.8103 21.9582H59.0744C59.0425 20.88 59.383 19.9203 59.8194 19.2303ZM69.2061 26.0339C68.9506 26.1202 68.5994 26.2064 68.2589 26.2927C67.9183 26.3789 67.5671 26.3789 67.1414 26.4652C66.8009 26.5515 66.3645 26.5515 66.024 26.6377C65.6834 26.724 65.3322 26.8102 64.9916 26.8965C64.6511 26.9827 64.2999 27.1553 64.1296 27.3278C63.8742 27.5003 63.7039 27.7591 63.523 28.0286C63.2675 28.3737 63.2675 28.7295 63.2675 29.1608C63.2675 29.5921 63.3527 29.9479 63.523 30.2067C63.6932 30.4654 63.8635 30.735 64.1296 30.9075C64.385 31.08 64.7362 31.1663 65.0768 31.2526C65.4173 31.3388 65.7685 31.3388 66.1942 31.3388C67.1414 31.3388 67.8332 31.1663 68.344 30.9075C68.8655 30.5625 69.2061 30.2067 69.4615 29.7754C69.7169 29.3441 69.8872 28.902 69.8872 28.4707C69.9723 28.0394 69.9723 27.6836 69.9723 27.4248V25.5918C69.7169 25.7643 69.4615 25.9476 69.2061 26.0339Z" fill="black"/>
<path d="M82.1551 16.6184V19.1127H82.236C82.8123 18.0469 83.5403 17.3326 84.4401 16.8931C85.34 16.4536 86.3207 16.1789 87.2206 16.1789C88.444 16.1789 89.4248 16.3547 90.1629 16.7173C90.9818 17.0689 91.5582 17.6073 91.9626 18.2337C92.367 18.86 92.7007 19.6511 92.9434 20.5412C93.1051 21.4312 93.186 22.4092 93.186 23.5629V34.4962H88.6867V24.453C88.6867 22.9366 88.444 21.8707 88.0295 21.1675C87.625 20.4533 86.887 20.0137 85.7343 20.0137C84.5109 20.0137 83.611 20.5522 83.0347 21.3433C82.4584 22.1455 82.2157 23.475 82.2157 25.2551V34.5951H77.7164V16.6184C77.7366 16.6184 82.1551 16.6184 82.1551 16.6184Z" fill="black"/>
<path d="M104.126 19.7586C103.355 19.7586 102.763 19.9311 102.245 20.2869C101.727 20.632 101.304 21.074 100.966 21.6778C100.628 22.2062 100.448 22.81 100.279 23.5108C100.11 24.2117 100.11 24.8155 100.11 25.5164C100.11 26.1309 100.194 26.821 100.279 27.4356C100.448 28.1365 100.617 28.654 100.966 29.1823C101.304 29.7107 101.653 30.142 102.16 30.487C102.678 30.832 103.27 31.0153 104.042 31.0153C105.152 31.0153 106.008 30.6703 106.695 30.0557C107.297 29.4411 107.72 28.5678 107.805 27.4356H112.339C112.001 29.7862 111.144 31.5329 109.686 32.7621C108.227 33.9805 106.346 34.5951 104.042 34.5951C102.763 34.5951 101.558 34.3363 100.533 33.8942C99.4229 33.4629 98.5668 32.8483 97.7952 32.0612C97.0236 31.2741 96.4317 30.3145 95.9984 29.2686C95.5756 28.1365 95.3959 27.0043 95.3959 25.6889C95.3959 24.298 95.565 23.0688 95.9984 21.9366C96.4212 20.8045 96.9391 19.7586 97.7107 18.8852C98.4822 18.0119 99.4229 17.3973 100.448 16.8797C101.558 16.4484 102.752 16.1789 104.126 16.1789C105.152 16.1789 106.092 16.3514 107.033 16.6102C107.974 16.8689 108.83 17.311 109.517 17.8286C110.288 18.3569 110.88 19.047 111.314 19.9203C111.736 20.7074 112.001 21.7533 112.085 22.8855H107.466C107.287 20.8045 106.177 19.7586 104.126 19.7586Z" fill="black"/>
<path d="M119.597 29.9159C120.279 30.6135 121.381 30.9569 122.652 30.9569C123.586 30.9569 124.436 30.6993 125.119 30.2593C125.801 29.7334 126.221 29.2183 126.389 28.6924H130.462C129.78 30.7745 128.762 32.2555 127.407 33.2106C126.053 34.0799 124.436 34.5951 122.484 34.5951C121.129 34.5951 119.933 34.3375 118.83 33.8975C117.728 33.4682 116.878 32.8565 116.111 31.9872C115.345 31.2037 114.757 30.2486 114.411 29.1217C113.991 27.9949 113.812 26.7821 113.812 25.387C113.812 24.0884 113.98 22.8649 114.411 21.7381C114.83 20.6112 115.429 19.656 116.195 18.7868C116.962 18.0033 117.896 17.3057 118.914 16.8764C120.017 16.4472 121.203 16.1789 122.484 16.1789C123.932 16.1789 125.203 16.4364 126.221 17.0482C127.323 17.6599 128.174 18.3467 128.856 19.3877C129.538 20.3429 130.042 21.4698 130.389 22.6825C130.725 23.8952 130.809 25.2045 130.725 26.589H118.41C118.41 27.9197 118.914 29.2183 119.597 29.9159ZM125.035 20.7936C124.436 20.1819 123.502 19.8385 122.4 19.8385C121.633 19.8385 121.045 20.0102 120.531 20.2678C120.017 20.5253 119.597 20.8795 119.345 21.2229C119.093 21.5664 118.83 22.0064 118.746 22.4357C118.662 22.8649 118.578 23.2191 118.578 23.5625H126.221C125.969 22.2747 125.539 21.4054 125.035 20.7936Z" fill="black"/>
</g>
<g clip-path="url(#clip2_1192_12738)">
<path d="M148.803 0.0966187V44.3123L160.865 37.5248L172.85 44.3123V0.0966187H148.803Z" fill="url(#paint0_linear_1192_12738)"/>
<path d="M164.162 24.6091C164.162 24.5316 164.201 24.5316 164.24 24.5316H165.558C165.636 24.5316 165.636 24.5703 165.636 24.6091V31.2027C165.636 31.2803 165.597 31.2803 165.558 31.2803H164.24C164.162 31.2803 164.123 31.2415 164.123 31.1639L164.162 24.6091ZM164.084 22.7086C164.084 22.1656 164.434 21.8553 164.938 21.8553C165.442 21.8553 165.791 22.2044 165.791 22.7086C165.791 23.2516 165.442 23.5619 164.938 23.5619C164.395 23.5619 164.084 23.2516 164.084 22.7086ZM160.284 27.3629C160.051 26.4321 159.508 24.4152 159.275 23.4456C159.081 24.4152 158.655 26.083 158.305 27.3629H160.284ZM157.995 28.7204L157.336 31.2415C157.297 31.319 157.297 31.319 157.219 31.319H155.978C155.901 31.319 155.901 31.2803 155.901 31.2027L158.267 22.9026C158.305 22.7474 158.344 22.6311 158.344 22.2044C158.344 22.1268 158.383 22.1268 158.422 22.1268H160.167C160.245 22.1268 160.245 22.1656 160.245 22.2044L162.882 31.2027C162.921 31.2803 162.882 31.319 162.805 31.319H161.408C161.331 31.319 161.292 31.2803 161.292 31.2415L160.671 28.798H157.995V28.7204Z" fill="#FF7F18"/>
</g>
<g clip-path="url(#clip3_1192_12738)">
<path d="M175.953 0.0966187V44.3123L188.015 37.5248L200 44.3123V0.0966187H175.953Z" fill="url(#paint1_linear_1192_12738)"/>
<path d="M189.287 31.354H187.825C187.743 31.0558 187.689 30.7507 187.662 30.4425C187.154 31.1251 186.254 31.513 184.963 31.513C182.279 31.513 180.774 29.4729 180.774 26.8587C180.774 24.0817 182.399 21.9872 185.312 21.9872C187.689 21.9872 189.097 23.3292 189.311 24.9H187.313C187.123 24.2834 186.642 23.5425 185.285 23.5425C183.38 23.5425 182.841 25.1405 182.841 26.7618C182.841 28.383 183.458 29.9305 185.296 29.9305C186.999 29.9305 187.321 28.7359 187.321 27.9176V27.8245H185.3V26.1722H189.287V31.354Z" fill="white"/>
<path d="M191.017 26.2924C191.017 25.5943 191.017 24.9892 191.017 24.3997H192.91C192.937 24.5587 192.964 25.2452 192.964 25.6214C193.275 24.8457 194.012 24.2523 195.194 24.2407V26.083C193.798 26.0403 192.964 26.4165 192.964 28.3248V31.3578H191.025L191.017 26.2924Z" fill="white"/>
</g>
</g>
<defs>
<linearGradient id="paint0_linear_1192_12738" x1="160.826" y1="0.225891" x2="160.826" y2="44.1877" gradientUnits="userSpaceOnUse">
<stop offset="0.2063" stop-color="#1C0A00"/>
<stop offset="0.5525" stop-color="#2A190D"/>
<stop offset="1" stop-color="#413224"/>
</linearGradient>
<linearGradient id="paint1_linear_1192_12738" x1="187.976" y1="44.3123" x2="187.976" y2="0.0966187" gradientUnits="userSpaceOnUse">
<stop stop-color="#C4A45C"/>
<stop offset="0.75" stop-color="#C19F63"/>
</linearGradient>
<clipPath id="clip0_1192_12738">
<rect width="200" height="44.2156" fill="white" transform="translate(0 0.0966187)"/>
</clipPath>
<clipPath id="clip1_1192_12738">
<rect width="131.123" height="44.1989" fill="white" transform="translate(0 0.10498)"/>
</clipPath>
<clipPath id="clip2_1192_12738">
<rect width="24.0471" height="44.2156" fill="white" transform="translate(148.803 0.0966187)"/>
</clipPath>
<clipPath id="clip3_1192_12738">
<rect width="24.0471" height="44.2156" fill="white" transform="translate(175.953 0.0966187)"/>
</clipPath>
</defs>
</svg>
