<svg width="20" height="20" viewBox="0 0 20 20" fill="none" xmlns="http://www.w3.org/2000/svg">
<path d="M11.6667 1.89136V5.33348C11.6667 5.80018 11.6667 6.03354 11.7575 6.2118C11.8374 6.3686 11.9649 6.49609 12.1217 6.57598C12.2999 6.66681 12.5333 6.66681 13 6.66681H16.4421M13.3333 10.8334H6.66668M13.3333 14.1667H6.66668M8.33334 7.50008H6.66668M11.6667 1.66675H7.33334C5.93321 1.66675 5.23315 1.66675 4.69837 1.93923C4.22796 2.17892 3.84551 2.56137 3.60583 3.03177C3.33334 3.56655 3.33334 4.26662 3.33334 5.66675V14.3334C3.33334 15.7335 3.33334 16.4336 3.60583 16.9684C3.84551 17.4388 4.22796 17.8212 4.69837 18.0609C5.23315 18.3334 5.93321 18.3334 7.33334 18.3334H12.6667C14.0668 18.3334 14.7669 18.3334 15.3017 18.0609C15.7721 17.8212 16.1545 17.4388 16.3942 16.9684C16.6667 16.4336 16.6667 15.7335 16.6667 14.3334V6.66675L11.6667 1.66675Z" stroke="#077167" stroke-width="1.66667" stroke-linecap="round" stroke-linejoin="round"/>
</svg>
