<svg width="38" height="22" viewBox="0 0 38 22" fill="none" xmlns="http://www.w3.org/2000/svg">
<g clip-path="url(#clip0_1206_11948)">
<path d="M20.5561 20.6884C20.5801 20.8082 20.5882 20.92 20.5801 21.0397C20.5801 21.1276 20.5882 21.2234 20.5962 21.3192C20.5962 21.415 20.6042 21.5108 20.5641 21.5986C20.524 21.6705 20.476 21.7264 20.3878 21.7663C20.2596 21.8222 20.1233 21.8382 19.9871 21.8621C19.8028 21.8861 19.378 21.942 19.1937 21.9659C19.0495 21.9899 18.8972 22.0059 18.7369 21.9979C18.6648 21.9979 18.6007 21.9739 18.5365 21.934C18.4644 21.8861 18.4244 21.8222 18.4163 21.7344C18.2641 20.7523 18.3041 19.7622 18.1198 18.7801C18.1038 18.6604 18.0717 18.5406 18.1198 18.4288C18.1599 18.317 18.2721 18.2372 18.3843 18.1973C18.5606 18.1334 18.769 18.1334 18.9533 18.1174C19.1937 18.0935 19.4341 18.0775 19.6745 18.0615C19.7547 18.0615 19.8348 18.0695 19.915 18.0775C19.9951 18.0855 20.0672 18.1254 20.1073 18.1973C20.1233 18.2292 20.1474 18.2691 20.1634 18.3011C20.1955 18.3729 20.2115 18.4528 20.1955 18.5326C20.1955 18.5645 20.1875 18.5885 20.1955 18.6125C20.1955 18.7402 20.2115 18.868 20.2115 18.9877C20.2115 19.0755 20.2516 19.2352 20.1875 19.3071C20.1634 19.3311 20.1233 19.347 20.0833 19.355C19.939 19.379 19.7948 19.4029 19.6505 19.3949C19.5944 19.3869 19.5303 19.3869 19.4982 19.347C19.4742 19.3151 19.4662 19.2752 19.4582 19.2273C19.4502 19.1793 19.4502 19.1314 19.4421 19.0835C19.4421 19.0596 19.4341 19.0356 19.4181 19.0197H19.4101C19.3941 19.0037 19.378 19.0117 19.354 19.0037C19.3059 19.0117 19.2658 19.0037 19.2177 19.0037C19.1857 19.0117 19.0895 19.0276 19.0815 19.0516C19.0495 19.0995 19.0414 19.1474 19.0495 19.1953C19.0575 19.379 19.0655 19.5706 19.0815 19.7622C19.0895 19.89 19.1216 20.0177 19.1376 20.1455C19.1456 20.3211 19.1456 20.4968 19.1616 20.6724C19.1616 20.7523 19.1616 20.8241 19.1777 20.888C19.1937 20.9838 19.2498 21.0397 19.346 21.0397C19.4101 21.0397 19.7226 21.0158 19.7948 21.0078C19.8268 20.9838 19.8348 20.9439 19.8268 20.904C19.8268 20.8082 19.8268 20.7204 19.8188 20.6245C19.8108 20.5686 19.8348 20.5207 19.8909 20.4808C20.0111 20.4169 20.1394 20.385 20.2756 20.401C20.4279 20.4409 20.524 20.5447 20.5561 20.6884Z" fill="#DBFF00"/>
<path d="M22.3112 21.2632C22.3593 21.3431 22.4074 21.4389 22.3673 21.5187C22.3112 21.6305 22.1108 21.6385 21.9987 21.6385C21.9426 21.6465 21.8704 21.6465 21.8223 21.6145C21.7823 21.5906 21.7582 21.5507 21.7342 21.5107C21.654 21.367 21.5739 21.2233 21.5018 21.0796C21.4297 20.9518 21.3736 20.8081 21.2854 20.6883C21.2854 20.7762 21.2774 20.864 21.2854 20.9438C21.3094 21.1355 21.3335 21.3271 21.3175 21.5187C21.3094 21.5986 21.2774 21.6465 21.2053 21.6704C21.077 21.7183 20.9408 21.7423 20.8046 21.7024C20.7244 21.6784 20.7004 21.6545 20.7004 21.5666C20.6924 21.391 20.6843 21.2233 20.6683 21.0476L20.6202 20.6165C20.6122 20.5446 20.5962 20.4648 20.5962 20.3849V20.0655C20.5962 20.0256 20.5962 19.9857 20.5882 19.9378C20.5481 19.7382 20.5401 19.5306 20.5321 19.331C20.5321 19.315 20.5321 19.299 20.5241 19.2831C20.516 19.0994 20.508 18.9078 20.492 18.7242C20.492 18.6363 20.492 18.5485 20.5241 18.4607C20.5401 18.4128 20.5641 18.3808 20.6042 18.3569C20.6683 18.3169 20.7324 18.293 20.8046 18.293C21.085 18.269 21.3495 18.2371 21.63 18.2211C21.7743 18.2131 21.9345 18.2371 22.0307 18.3489C22.1669 18.5166 22.1429 18.788 22.1429 18.9876L22.1669 19.4667C22.175 19.5785 22.175 19.6983 22.1509 19.81C22.1269 19.9138 22.0628 20.0256 21.9586 20.0735C21.9105 20.0895 21.8624 20.1055 21.8143 20.1134C21.7983 20.1214 21.7903 20.1214 21.7823 20.1294C21.7662 20.1454 21.7823 20.1614 21.7903 20.1853C21.7903 20.1933 21.7983 20.2013 21.7983 20.2093C21.9586 20.5845 22.1189 20.9279 22.3112 21.2632ZM21.5258 19.315C21.5178 19.2511 21.5178 19.1793 21.5098 19.1074C21.5098 19.0755 21.5018 19.0355 21.4938 19.0036C21.4938 18.9637 21.4697 18.9477 21.4297 18.9477C21.3736 18.9397 21.3255 18.9317 21.2774 18.9238C21.2293 18.9238 21.1812 18.9158 21.1411 18.9477C21.1091 19.0914 21.1251 19.4507 21.1732 19.5465C21.2694 19.5545 21.3575 19.4986 21.4537 19.4827C21.5258 19.4348 21.5258 19.3789 21.5258 19.315Z" fill="#DBFF00"/>
<path d="M24.9639 21.0319C24.9719 21.0877 24.9719 21.1436 24.9478 21.1915C24.8677 21.3832 24.5792 21.3113 24.4189 21.3512C24.2987 21.3832 24.1705 21.3832 24.0342 21.3991C23.906 21.4151 23.7858 21.4311 23.6495 21.4391C23.4091 21.455 23.1767 21.479 22.9363 21.4949C22.8001 21.5029 22.6558 21.5109 22.5516 21.4231C22.4955 21.3832 22.4635 21.3113 22.4474 21.2394C22.4234 21.1277 22.4234 21.0159 22.4074 20.9041L22.3593 20.5448C22.3352 20.3053 22.3112 20.0577 22.2952 19.8182C22.2871 19.6585 22.2871 19.4908 22.2791 19.3312C22.2791 19.2114 22.2631 19.0916 22.2551 18.9798C22.2391 18.8281 22.2311 18.6764 22.2471 18.5247C22.2551 18.4848 22.2551 18.4369 22.2711 18.397C22.2871 18.365 22.3112 18.3331 22.3432 18.3171C22.4074 18.2692 22.4955 18.2453 22.5757 18.2293C22.6638 18.2133 22.752 18.1974 22.8401 18.1894C23.0405 18.1654 23.2328 18.1495 23.4332 18.1335C23.4973 18.1255 23.5694 18.1335 23.6335 18.1335C23.7137 18.1335 23.7698 18.1734 23.8098 18.2373C23.8259 18.2772 23.8579 18.3251 23.8739 18.365C23.898 18.4129 23.898 18.4688 23.89 18.5247V18.6205C23.898 18.7802 23.914 18.9319 23.93 19.0916V19.1315C23.898 19.1874 23.8579 19.2274 23.7938 19.2353C23.7617 19.2433 23.7297 19.2593 23.6896 19.2673C23.6015 19.2833 23.5133 19.2912 23.4171 19.2992C23.353 19.2753 23.313 19.2194 23.2969 19.1475C23.2889 19.0836 23.2649 19.0198 23.2488 18.9479C23.1447 18.9479 23.0405 18.9559 22.9443 19.0118C22.9363 19.0437 22.9203 19.0757 22.9203 19.1076C22.9283 19.2114 22.9363 19.3232 22.9443 19.435C22.9764 19.435 22.9924 19.435 23.0084 19.427C23.0966 19.419 23.1767 19.411 23.2649 19.403C23.4011 19.3791 23.4893 19.4749 23.4973 19.5787L23.5454 19.8422C23.5534 19.8981 23.5534 19.946 23.5454 19.9939C23.5454 20.0577 23.5133 20.1057 23.4572 20.1296C23.4171 20.1456 23.3771 20.1536 23.337 20.1615C23.2809 20.1695 23.2248 20.1775 23.1687 20.1775C23.1286 20.1855 23.0966 20.1935 23.0565 20.2015C23.0244 20.2095 23.0966 20.5767 23.1046 20.6007C23.1046 20.6326 23.1126 20.6646 23.1286 20.6965C23.1767 20.7684 23.2809 20.7684 23.361 20.7604C23.8259 20.7125 24.2827 20.6726 24.7395 20.6406C24.7956 20.6406 24.8517 20.6326 24.8837 20.6726C24.9078 20.6965 24.9158 20.7284 24.9238 20.7604C24.9478 20.8642 24.9639 20.944 24.9639 21.0319ZM25.028 20.465C25.02 20.433 25.0119 20.4011 24.9879 20.3691C24.9398 20.2893 24.8196 20.3292 24.7395 20.3292C24.7074 20.3292 24.6673 20.3372 24.6433 20.3691C24.6273 20.3851 24.6273 20.4091 24.6192 20.425C24.5952 20.4729 24.5551 20.5129 24.499 20.5288C24.475 20.5368 24.451 20.5368 24.4269 20.5368C24.3067 20.5448 24.1865 20.5448 24.0663 20.5528C24.0502 20.5528 24.0262 20.5528 24.0022 20.5448C23.9861 20.5368 23.9781 20.5288 23.9701 20.5129C23.9461 20.4729 23.9461 20.425 23.9461 20.3851C23.9541 20.2174 23.9781 20.0577 23.9861 19.8901C24.0022 19.6984 24.0182 19.5148 24.0422 19.3232C24.0823 18.9639 24.1384 18.6046 24.2185 18.2453C24.2266 18.2054 24.2426 18.1654 24.2586 18.1255C24.3067 18.0616 24.3868 18.0297 24.467 18.0137C24.6192 17.9738 24.7635 17.9658 24.9158 18.0057C24.9318 18.0057 24.9478 18.0137 24.9639 18.0217C25.02 18.0536 25.036 18.1175 25.052 18.1734C25.1161 18.4129 25.1802 18.6525 25.2443 18.9C25.4046 19.5068 25.5409 20.1136 25.6611 20.7284C25.6771 20.8243 25.6931 20.9201 25.7172 21.0079C25.7252 21.0558 25.7332 21.1037 25.7252 21.1436C25.6851 21.2874 25.3485 21.2953 25.2524 21.2155C25.1882 21.1676 25.1642 21.0718 25.1402 20.9919C25.1402 20.9839 25.1402 20.976 25.1321 20.96C25.1081 20.8083 25.068 20.6326 25.028 20.465ZM24.8677 19.8342C24.9158 19.8022 24.8997 19.7384 24.8917 19.6905C24.8677 19.6186 24.8517 19.5467 24.8356 19.4829C24.8116 19.395 24.7795 19.3072 24.7635 19.2274H24.7475C24.7074 19.2274 24.6994 19.4589 24.6994 19.4589C24.6914 19.5787 24.6753 19.6825 24.6593 19.7943C24.6513 19.8182 24.6513 19.8502 24.6753 19.8661H24.7074C24.7475 19.8661 24.7875 19.8661 24.8196 19.8581C24.8276 19.8502 24.8436 19.8502 24.8517 19.8422C24.8517 19.8422 24.8597 19.8422 24.8677 19.8342Z" fill="#DBFF00"/>
<path d="M25.4687 18.7003C25.3245 18.7163 25.2764 18.6844 25.2604 18.5406C25.2444 18.4289 25.2363 18.3171 25.2283 18.2053C25.2283 18.1733 25.2203 18.1494 25.2283 18.1175C25.2283 18.1015 25.2363 18.0696 25.2524 18.0536C25.2924 18.0137 25.3325 17.9658 25.3966 17.9578C25.5248 17.9338 25.6451 17.9099 25.7733 17.8779C25.8454 17.862 25.9255 17.854 25.9977 17.846C26.0297 17.838 26.0618 17.838 26.1019 17.838C26.3263 17.822 26.5506 17.7981 26.775 17.7582C26.8151 17.7502 26.8632 17.7422 26.9113 17.7422C26.9994 17.7422 27.0475 17.7821 27.0636 17.862C27.0796 17.9099 27.0796 17.9737 27.0796 18.0216C27.0796 18.1175 27.0876 18.2133 27.0876 18.3091C27.0956 18.4688 27.0315 18.5167 26.8953 18.5247L26.6067 18.5486C26.5907 18.5486 26.5667 18.5486 26.5426 18.5566C26.5426 18.5885 26.5506 18.6125 26.5506 18.6285C26.5827 19.0037 26.6148 19.379 26.6388 19.7543V20.0497C26.6388 20.1854 26.6709 20.3292 26.6548 20.4729C26.6388 20.5527 26.6628 20.6326 26.6628 20.7044C26.6709 20.7843 26.6789 20.8561 26.6789 20.928C26.6869 21.0158 26.6548 21.0957 26.5907 21.1516C26.5827 21.1595 26.5667 21.1755 26.5506 21.1755C26.3984 21.2474 26.2461 21.2633 26.0938 21.1995C25.9897 21.1595 25.9336 21.0877 25.9175 20.9679C25.8534 20.5288 25.8294 20.0896 25.7893 19.6585C25.7813 19.4668 25.7813 19.2752 25.7813 19.0916V18.7642C25.7813 18.7323 25.7733 18.7003 25.7733 18.6604C25.6691 18.6764 25.5649 18.6844 25.4687 18.7003Z" fill="#DBFF00"/>
<path d="M27.1677 19.0996C27.1677 18.9719 27.1758 18.8441 27.1758 18.7164C27.1758 18.5647 27.1597 18.421 27.1597 18.2693C27.1597 18.1495 27.1597 18.0297 27.1918 17.91C27.2158 17.8381 27.2559 17.7982 27.336 17.7902C27.4162 17.7822 27.4883 17.7662 27.5604 17.7503L27.7528 17.7263C27.8169 17.7263 27.865 17.7662 27.881 17.8381C27.889 17.91 27.897 17.9978 27.905 18.0776C27.9211 18.2533 27.9291 18.429 27.9451 18.6046C27.9611 18.8202 27.9772 19.0438 27.9932 19.2673C28.0012 19.411 28.0172 19.5548 28.0172 19.6985C28.0172 19.7224 28.0253 19.7464 28.0172 19.7703C28.0012 19.8582 28.0172 19.946 28.0253 20.0418C28.0333 20.1376 28.0413 20.2334 28.0333 20.3372C28.0333 20.4091 28.0413 20.4889 28.0413 20.5608C28.0493 20.6327 28.0573 20.7045 28.0573 20.7844C28.0653 20.8722 28.0333 20.9361 27.9692 20.9999C27.9531 21.0079 27.9451 21.0239 27.9291 21.0239C27.8249 21.0638 27.7207 21.1117 27.6005 21.0798C27.5684 21.0718 27.5204 21.0718 27.4883 21.0638C27.3681 21.0239 27.304 20.952 27.288 20.8243C27.2399 20.5209 27.2238 20.2095 27.1758 19.8023C27.1838 19.6346 27.1758 19.3631 27.1677 19.0996Z" fill="#DBFF00"/>
<path d="M29.1793 18.7402C29.1953 18.5885 29.2033 18.4368 29.2193 18.2851C29.2193 18.2452 29.2273 18.2052 29.2354 18.1653C29.2514 18.0855 29.2594 18.0056 29.2754 17.9258C29.2915 17.8539 29.2995 17.7741 29.3155 17.6942C29.3235 17.6543 29.3315 17.6144 29.3796 17.5904C29.5479 17.5824 29.7242 17.5425 29.9005 17.5745C29.9326 17.5824 29.9646 17.5904 29.9967 17.6064C29.9967 17.6383 30.0047 17.6623 30.0047 17.6862V17.7182C29.9807 17.8539 29.9727 17.9976 29.9646 18.1334C29.9566 18.341 29.9406 18.5406 29.9246 18.7482C29.9085 18.9159 29.8845 19.0835 29.8685 19.2592C29.8364 19.4748 29.8124 19.6903 29.7883 19.9059C29.7723 20.0576 29.7483 20.2093 29.7162 20.361C29.7162 20.369 29.7162 20.385 29.7082 20.393C29.6441 20.5207 29.62 20.6645 29.58 20.8002C29.5559 20.88 29.4998 20.92 29.4197 20.92C29.3636 20.92 29.3075 20.9279 29.2514 20.9359C29.1873 20.9439 29.1392 20.9279 29.0991 20.888C29.0911 20.888 29.0911 20.888 29.0911 20.88C28.9709 20.8082 28.8988 20.6964 28.8587 20.5686C28.8347 20.4808 28.7866 20.401 28.7465 20.3131L28.5542 19.8341C28.4981 19.6824 28.45 19.5227 28.3859 19.379C28.3298 19.2432 28.2817 19.1075 28.2496 18.9717C28.2176 18.8679 28.1855 18.7641 28.1454 18.6683C28.1134 18.5725 28.0893 18.4767 28.0653 18.3809C28.0332 18.2452 27.9932 18.1094 27.9611 17.9737C27.913 17.798 28.0092 17.6543 28.1695 17.6304C28.2576 17.6224 28.3378 17.6144 28.434 17.6064C28.5221 17.5984 28.5942 17.6463 28.6183 17.7421C28.6503 17.8539 28.6984 17.9577 28.7465 18.0695C28.7866 18.1573 28.8186 18.2531 28.8507 18.341C28.8667 18.3649 28.8667 18.4048 28.8827 18.4208C28.9629 18.5805 29.019 18.7482 29.0751 18.9079C29.0911 18.9638 29.1151 19.0117 29.1312 19.0676C29.1392 19.0676 29.1392 19.0676 29.1472 19.0596C29.1552 18.9558 29.1712 18.852 29.1793 18.7402Z" fill="#DBFF00"/>
<path d="M31.5835 18.5327C31.5434 18.5407 31.5114 18.5647 31.4793 18.5726C31.3911 18.5886 31.295 18.5966 31.2068 18.6046C31.1347 18.5806 31.1026 18.5247 31.0866 18.4529C31.0706 18.389 31.0546 18.3251 31.0385 18.2533C30.9343 18.2533 30.8302 18.2613 30.734 18.3171L30.7099 18.413C30.718 18.5247 30.726 18.6285 30.742 18.7483C30.766 18.7483 30.7821 18.7483 30.8061 18.7403C30.8943 18.7244 30.9744 18.7244 31.0626 18.7084C31.1988 18.6844 31.287 18.7802 31.303 18.884C31.319 18.9719 31.335 19.0597 31.3511 19.1555C31.3591 19.2114 31.3591 19.2593 31.3591 19.3152C31.3511 19.3791 31.319 19.427 31.2629 19.443C31.2229 19.4589 31.1748 19.4669 31.1427 19.4749C31.0786 19.4829 31.0225 19.4909 30.9664 19.4988C30.9263 19.5068 30.8943 19.5148 30.8542 19.5308C30.8542 19.5388 30.8462 19.5468 30.8462 19.5627C30.8542 19.6905 30.8702 19.8182 30.8782 19.946C30.8943 20.0338 30.9424 20.0817 31.0305 20.0817H31.0465C31.0946 20.0737 31.1427 20.0737 31.1988 20.0737C31.2469 19.9939 31.2068 19.914 31.2309 19.8182C31.2389 19.8023 31.2629 19.7783 31.311 19.7703C31.4392 19.7224 31.5675 19.7144 31.7037 19.7064C31.7598 19.6985 31.7999 19.7384 31.8319 19.7783C31.856 19.8023 31.864 19.8342 31.872 19.8661C31.888 19.954 31.904 20.0338 31.9121 20.1296C31.9201 20.2254 31.9281 20.3212 31.9281 20.4171C31.9281 20.4969 31.896 20.5608 31.8399 20.6087C31.7037 20.7285 31.4793 20.7524 31.311 20.7843C31.1107 20.8243 30.9183 20.8322 30.718 20.8243C30.6058 20.8163 30.4936 20.8083 30.4054 20.7444C30.3012 20.6646 30.2612 20.5448 30.2211 20.4171C30.157 20.2174 30.157 20.0019 30.1329 19.7943C30.1089 19.5787 30.0929 19.3631 30.0768 19.1475C30.0688 18.9878 30.0688 18.8202 30.0608 18.6605C30.0448 18.3571 29.9646 18.0057 30.181 17.7423C30.2612 17.6385 30.3814 17.5746 30.5016 17.5347C30.734 17.4628 30.9824 17.4628 31.2229 17.4389C31.287 17.4309 31.3591 17.4389 31.4232 17.4389C31.5033 17.4389 31.5594 17.4788 31.5995 17.5426C31.6236 17.5826 31.6476 17.6305 31.6716 17.6704C31.6957 17.7183 31.6877 17.7822 31.6877 17.8301V17.9259C31.6957 18.0856 31.7117 18.2453 31.7277 18.405V18.4449C31.6877 18.4768 31.6476 18.5168 31.5835 18.5327Z" fill="#DBFF00"/>
<path d="M35.0776 19.4269C35.1017 19.5467 35.1097 19.6585 35.1017 19.7783C35.1017 19.8661 35.1097 19.9619 35.1177 20.0577C35.1177 20.1535 35.1257 20.2493 35.0857 20.3372C35.0456 20.409 34.9975 20.4649 34.9094 20.5048C34.7811 20.5607 34.6449 20.5767 34.5086 20.6007C34.3243 20.6246 33.8996 20.6805 33.7153 20.7045C33.571 20.7284 33.4187 20.7444 33.2584 20.7364C33.1863 20.7364 33.1222 20.7124 33.0581 20.6725C32.986 20.6246 32.9459 20.5607 32.9379 20.4729C32.7856 19.4908 32.8257 18.5007 32.6414 17.5187C32.6253 17.3989 32.5933 17.2791 32.6414 17.1673C32.6814 17.0556 32.7936 16.9757 32.9058 16.9358C33.0821 16.8719 33.2905 16.8719 33.4748 16.8559C33.7153 16.832 33.9557 16.816 34.1961 16.8C34.2762 16.8 34.3564 16.808 34.4365 16.816C34.5167 16.824 34.5888 16.8639 34.6289 16.9358C34.6449 16.9677 34.6689 17.0076 34.685 17.0396C34.717 17.1114 34.733 17.1913 34.717 17.2711C34.717 17.3031 34.709 17.327 34.717 17.351C34.717 17.4787 34.733 17.6065 34.733 17.7262C34.733 17.8141 34.7731 17.9738 34.709 18.0456C34.685 18.0696 34.6449 18.0855 34.6048 18.0935C34.4606 18.1175 34.3163 18.1414 34.1721 18.1335C34.116 18.1255 34.0518 18.1255 34.0198 18.0855C33.9957 18.0536 33.9877 18.0137 33.9797 17.9658C33.9717 17.9179 33.9717 17.87 33.9637 17.8221C33.9637 17.7981 33.9557 17.7742 33.9396 17.7582H33.9316C33.9156 17.7422 33.8996 17.7502 33.8755 17.7422C33.8274 17.7502 33.7874 17.7422 33.7393 17.7422C33.7072 17.7502 33.6111 17.7662 33.6031 17.7901C33.571 17.838 33.563 17.8859 33.571 17.9338C33.579 18.1175 33.587 18.3091 33.6031 18.5007C33.6111 18.6285 33.6431 18.7562 33.6592 18.884C33.6672 19.0597 33.6672 19.2353 33.6832 19.411C33.6832 19.4908 33.6832 19.5627 33.6992 19.6265C33.7153 19.7224 33.7714 19.7783 33.8675 19.7783C33.9316 19.7783 34.2442 19.7543 34.3163 19.7463C34.3484 19.7224 34.3564 19.6824 34.3484 19.6425C34.3484 19.5467 34.3484 19.4589 34.3403 19.3631C34.3323 19.3072 34.3564 19.2593 34.4125 19.2193C34.5327 19.1555 34.6609 19.1235 34.7972 19.1395C34.9414 19.1794 35.0456 19.2752 35.0776 19.4269Z" fill="#DBFF00"/>
<path d="M36.5602 20.2174C36.448 20.2493 36.3439 20.2573 36.2317 20.2732C36.1034 20.2972 35.9752 20.3371 35.847 20.3531C35.7188 20.377 35.5825 20.3691 35.4703 20.3052C35.3421 20.2413 35.27 20.1136 35.2219 19.9858C35.1738 19.8581 35.1658 19.7143 35.1498 19.5786C35.1257 19.3391 35.1097 19.0995 35.1017 18.86C35.0937 18.6763 35.0937 18.4927 35.0937 18.3091V17.8859C35.0856 17.7821 35.0857 17.6783 35.0776 17.5825C35.0776 17.5505 35.0776 17.5186 35.0937 17.4867C35.1177 17.4148 35.1417 17.335 35.1738 17.2711C35.2219 17.1753 35.31 17.1194 35.4062 17.1034C35.5745 17.0715 35.7348 17.0475 35.9111 17.0555H36.2156C36.2958 17.0555 36.3839 17.0715 36.4641 17.0795C36.5202 17.0954 36.5683 17.1274 36.6003 17.1753C36.6244 17.2312 36.6564 17.2791 36.6724 17.335C36.7045 17.4308 36.7366 17.5346 36.7606 17.6384C36.7686 17.6943 36.7686 17.7661 36.7686 17.822C36.7846 17.9737 36.7926 18.1334 36.8087 18.2851C36.8087 18.365 36.8087 18.4368 36.8167 18.5087C36.8247 18.6364 36.8247 18.7562 36.8327 18.876C36.8487 19.1953 36.8808 19.5067 36.8568 19.8341C36.8568 19.8581 36.8487 19.89 36.8487 19.9139C36.8087 20.0896 36.7205 20.1694 36.5602 20.2174ZM35.9111 17.8779C35.8069 17.8779 35.7508 17.9577 35.7588 18.0536C35.7588 18.1494 35.7668 18.2452 35.7749 18.341C35.7829 18.4288 35.7989 18.5246 35.8149 18.6125C35.847 18.8281 35.839 19.0516 35.855 19.2672C35.855 19.347 35.863 19.4269 35.879 19.4987C35.8871 19.5626 35.9672 19.6025 36.0233 19.5946C36.0634 19.5786 36.0954 19.5706 36.1355 19.5546C36.1756 19.5307 36.2076 19.5067 36.2076 19.4508C36.2076 19.379 36.2076 19.3071 36.1996 19.2353C36.1996 19.1634 36.1836 19.0995 36.1836 19.0277C36.1836 18.9319 36.1836 18.836 36.1676 18.7402C36.1435 18.5566 36.1195 18.3809 36.0954 18.1973C36.0794 18.1015 36.0714 17.9897 36.0233 17.9019C35.9832 17.8779 35.9512 17.8699 35.9111 17.8779Z" fill="#DBFF00"/>
<path d="M32.6334 16.2171C32.7696 16.1612 32.9219 16.1293 33.0741 16.1053C33.3466 16.0654 33.6271 16.0814 33.8996 16.0495C34.14 16.0175 34.116 15.9776 34.1079 15.762V13.3747H35.3261C35.3181 13.3747 35.3341 16.0574 35.3261 16.3289C35.6707 16.305 36.0153 16.2411 36.3599 16.281C36.7205 16.3209 37.0812 16.4726 37.2655 16.792L37.2815 16.8239L37.2975 16.8639C37.3056 16.8719 37.3056 16.8798 37.3136 16.8878C37.3136 16.8958 37.3216 16.9038 37.3216 16.9038V5.39019C37.3216 4.67957 37.0251 4.03283 36.5522 3.56175C36.0794 3.09066 35.4303 2.80322 34.717 2.80322C34.0038 2.80322 33.3546 3.09066 32.8818 3.56175C32.409 4.03283 32.1124 4.67957 32.1124 5.39019V16.0574C32.1124 16.1692 32.0644 16.3928 32.1124 16.4886C32.1204 16.5126 32.1124 16.5525 32.1124 16.5764C32.2567 16.4088 32.433 16.297 32.6334 16.2171ZM34.1079 5.39019C34.1079 5.22252 34.1721 5.07081 34.2843 4.96701C34.3964 4.85523 34.5487 4.78337 34.709 4.78337C34.8773 4.78337 35.0296 4.85523 35.1418 4.96701C35.254 5.07081 35.3181 5.2305 35.3181 5.39019V11.7937H34.0999V5.39019H34.1079Z" fill="#2E2E2E"/>
<path d="M27.2559 17.0236C27.7688 16.9837 28.2576 16.7602 28.7786 16.9039C28.8347 16.9198 28.8827 16.9358 28.9388 16.9278C28.9949 16.9198 29.051 16.8959 29.0991 16.8719C29.4678 16.7202 30.3413 16.9997 30.4936 16.6005C30.5417 16.4807 30.5176 16.2891 30.5336 16.1613L30.6779 14.4846C30.8221 12.7839 30.9744 11.0832 31.1187 9.38251C31.2549 7.77763 31.3911 6.18074 31.5354 4.57586C31.5755 4.08082 31.6236 3.5778 31.6636 3.08276H29.6761L28.8507 16.1533L28.0172 3.08276H26.0297L27.2318 17.0157C27.2399 17.0236 27.2479 17.0236 27.2559 17.0236Z" fill="#2E2E2E"/>
<path d="M9.52872 3.07471V15.4666H7.54123V3.07471H9.52872Z" fill="#2E2E2E"/>
<path d="M13.5678 7.56205L12.3978 3.80137V3.08276H10.4023V18.4449H12.3978V9.04716L13.5678 13.1352V18.4449H15.5553V3.08276H13.5678V7.56205Z" fill="#2E2E2E"/>
<path d="M17.4066 18.1574C17.5268 17.854 17.7832 17.6065 18.1118 17.4788L18.1198 17.4708C18.3683 17.3829 18.6167 17.367 18.793 17.351C18.8251 17.351 18.8571 17.343 18.8892 17.343C19.1376 17.3191 19.378 17.3031 19.6185 17.2871H19.7066C19.7787 17.2871 19.8429 17.2951 19.899 17.2951V16.4647H18.4324V13.6622H19.907V12.0733H18.4324V5.06291H19.907V3.08276H16.4449V18.4449H17.3425C17.3425 18.357 17.3665 18.2532 17.4066 18.1574Z" fill="#2E2E2E"/>
<path d="M20.6042 17.5267C20.6763 17.5506 20.7645 17.5586 20.9007 17.5426C21.2213 17.5027 21.5499 17.4468 21.8784 17.4947C22.0868 17.5267 22.231 17.5346 22.4314 17.4947V13.3268H23.0645C23.321 13.3268 23.4492 13.3668 23.4973 13.4306C23.6095 13.6143 23.6495 13.9736 23.6495 14.4606V16.9039C23.6495 17.0077 23.6255 17.1354 23.6495 17.2392C23.7137 17.5107 24.0102 17.367 24.2426 17.2951C24.4429 17.2312 24.6513 17.2073 24.8517 17.2233C24.9158 17.2312 24.9879 17.2392 25.052 17.2392C25.1241 17.2392 25.1963 17.2233 25.2684 17.2073C25.5729 17.1354 25.629 17.1514 25.629 16.856V15.3629C25.629 14.5165 25.5088 13.8139 25.1562 13.263C25.1482 13.247 25.1402 13.231 25.1241 13.2151C25.4367 12.8078 25.629 12.2968 25.629 11.7379V5.31043C25.629 4.64772 25.3085 4.07284 24.7795 3.65765C24.3227 3.30633 23.7137 3.08276 23.0565 3.08276H20.4359V16.832C20.4359 17.1434 20.3638 17.4468 20.6042 17.5267ZM22.4234 5.06291H23.0565C23.2649 5.06291 23.4412 5.1188 23.5614 5.21462C23.6095 5.25454 23.6415 5.28648 23.6415 5.31043V11.2349C23.6415 11.3706 23.5854 11.4904 23.4893 11.5782C23.3851 11.6741 23.2328 11.7379 23.0485 11.7379H22.4154V5.06291H22.4234Z" fill="#2E2E2E"/>
<path d="M6.29907 13.8857V3.07471H4.31158L3.14954 5.81338L1.98749 3.07471H0V18.4368H1.98749V6.97113L2.86103 9.02313L3.03734 9.43833H3.26173L3.43804 9.02313L4.31158 6.97113C4.31158 10.0132 4.28754 13.0553 4.31959 16.0974C4.33562 17.4707 4.51193 18.4448 6.29907 18.4448H9.53676V16.4647H6.29907V13.8857Z" fill="#2E2E2E"/>
<path d="M37.4177 19.9139C37.4257 19.9379 37.4257 19.9698 37.4257 19.9858C37.4257 20.0177 37.4338 20.0496 37.4338 20.0736C37.4418 20.1295 37.4418 20.1854 37.4177 20.2413C37.4017 20.2732 37.3777 20.2892 37.3456 20.3131C37.3216 20.3291 37.2815 20.3291 37.2494 20.3291C37.2254 20.3291 37.2013 20.3371 37.1693 20.3371H37.1212C37.0892 20.3291 37.0571 20.3051 37.0411 20.2732C37.025 20.2333 37.017 20.2013 37.017 20.1614C37.017 20.1215 37.009 20.0896 37.001 20.0496C37.001 20.0257 36.993 19.9937 37.001 19.9778C37.017 19.9538 37.0331 19.9299 37.0571 19.9219C37.1453 19.882 37.3777 19.8181 37.4177 19.9139Z" fill="#DBFF00"/>
<path d="M9.36043 0.240222C9.39249 0.352005 9.40851 0.48774 9.41653 0.599523C9.43256 0.759212 9.44057 0.894948 9.4566 1.03068C9.48064 1.30216 9.48064 1.57363 9.36844 1.81316C9.2883 1.95688 9.18412 2.0527 9.03185 2.14053C8.90363 2.19642 8.74335 2.21239 8.58306 2.22835C8.47087 2.23634 8.35867 2.24432 8.22243 2.26029C8.1503 2.26828 8.06215 2.27626 7.99002 2.26029C7.82974 2.22835 7.67747 2.10859 7.62137 1.9489C7.54123 1.77324 7.5252 1.61355 7.50918 1.43789C7.49315 1.26223 7.45308 1.07859 7.43705 0.894948C7.42904 0.783166 7.41301 0.64743 7.45308 0.551616C7.50918 0.431849 7.61336 0.336036 7.72556 0.280144C8.06215 0.0805327 9.16008 -0.214893 9.36043 0.240222Z" fill="#2E2E2E"/>
</g>
<defs>
<clipPath id="clip0_1206_11948">
<rect width="37.4386" height="22" fill="white"/>
</clipPath>
</defs>
</svg>
