<svg width="137" height="80" viewBox="0 0 137 80" fill="none" xmlns="http://www.w3.org/2000/svg">
<g clip-path="url(#clip0_254_617)">
<path d="M74.7496 75.2308C74.8371 75.6663 74.8662 76.0728 74.8371 76.5083C74.8371 76.8277 74.8662 77.1761 74.8954 77.5245C74.8954 77.8729 74.9245 78.2213 74.7788 78.5407C74.6331 78.802 74.4582 79.0053 74.1377 79.1504C73.6714 79.3537 73.176 79.4117 72.6806 79.4988C72.0103 79.586 70.4658 79.7892 69.7955 79.8763C69.2709 79.9634 68.7172 80.0215 68.1344 79.9924C67.8721 79.9924 67.639 79.9053 67.4058 79.7602C67.1436 79.586 66.9978 79.3537 66.9687 79.0343C66.415 75.4631 66.5607 71.8628 65.8904 68.2916C65.8322 67.856 65.7156 67.4205 65.8904 67.014C66.0362 66.6076 66.4441 66.3172 66.8521 66.1721C67.4933 65.9398 68.251 65.9398 68.9212 65.8817C69.7955 65.7946 70.6698 65.7365 71.544 65.6785C71.8354 65.6785 72.1269 65.7075 72.4183 65.7365C72.7097 65.7656 72.972 65.9107 73.1177 66.1721C73.176 66.2882 73.2634 66.4334 73.3217 66.5495C73.4383 66.8108 73.4965 67.1012 73.4383 67.3915C73.4383 67.5076 73.4091 67.5947 73.4383 67.6818C73.4383 68.1464 73.4965 68.6109 73.4965 69.0465C73.4965 69.3658 73.6422 69.9465 73.4091 70.2078C73.3217 70.2949 73.176 70.353 73.0303 70.382C72.5057 70.4691 71.9812 70.5562 71.4566 70.5272C71.2526 70.4982 71.0195 70.4982 70.9029 70.353C70.8155 70.2369 70.7863 70.0917 70.7572 69.9175C70.728 69.7433 70.728 69.5691 70.6989 69.3949C70.6989 69.3078 70.6697 69.2207 70.6115 69.1626H70.5823C70.524 69.1045 70.4658 69.1336 70.3783 69.1045C70.2035 69.1336 70.0578 69.1045 69.8829 69.1045C69.7663 69.1336 69.4166 69.1916 69.3875 69.2787C69.2709 69.4529 69.2418 69.6271 69.2709 69.8014C69.3001 70.4691 69.3292 71.166 69.3875 71.8628C69.4166 72.3274 69.5332 72.7919 69.5915 73.2564C69.6206 73.8952 69.6206 74.534 69.6789 75.1727C69.6789 75.4631 69.6789 75.7244 69.7372 75.9567C69.7955 76.3051 69.9995 76.5083 70.3492 76.5083C70.5823 76.5083 71.7189 76.4212 71.9811 76.3922C72.0977 76.3051 72.1269 76.1599 72.0977 76.0147C72.0977 75.6663 72.0977 75.3469 72.0686 74.9985C72.0394 74.7953 72.1269 74.6211 72.3309 74.4759C72.768 74.2436 73.2343 74.1275 73.7297 74.1856C74.2834 74.3307 74.6331 74.7082 74.7496 75.2308Z" fill="#DBFF00"/>
<path d="M81.1316 77.3211C81.3065 77.6115 81.4813 77.9599 81.3356 78.2502C81.1316 78.6567 80.4031 78.6857 79.9951 78.6857C79.7911 78.7148 79.5288 78.7148 79.3539 78.5986C79.2082 78.5115 79.1208 78.3664 79.0334 78.2212C78.742 77.6986 78.4505 77.176 78.1883 76.6533C77.926 76.1888 77.722 75.6662 77.4014 75.2306C77.4014 75.55 77.3723 75.8694 77.4014 76.1597C77.4889 76.8566 77.5763 77.5534 77.518 78.2502C77.4889 78.5406 77.3723 78.7148 77.11 78.8019C76.6437 78.9761 76.1483 79.0632 75.6529 78.918C75.3615 78.8309 75.274 78.7438 75.274 78.4244C75.2449 77.7857 75.2158 77.176 75.1575 76.5372L74.9826 74.9693C74.9535 74.708 74.8952 74.4177 74.8952 74.1273V72.966C74.8952 72.8208 74.8952 72.6756 74.8661 72.5014C74.7203 71.7755 74.6912 71.0207 74.6621 70.2948C74.6621 70.2367 74.6621 70.1787 74.6329 70.1206C74.6038 69.4528 74.5746 68.756 74.5164 68.0882C74.5164 67.7688 74.5164 67.4494 74.6329 67.13C74.6912 66.9558 74.7786 66.8397 74.9243 66.7526C75.1575 66.6074 75.3906 66.5203 75.6529 66.5203C76.6729 66.4332 77.6346 66.3171 78.6545 66.259C79.1791 66.23 79.7619 66.3171 80.1116 66.7236C80.6071 67.3333 80.5196 68.3204 80.5196 69.0463L80.6071 70.7884C80.6362 71.1949 80.6362 71.6304 80.5488 72.0369C80.4613 72.4143 80.2282 72.8208 79.8494 72.995C79.6745 73.0531 79.4997 73.1111 79.3248 73.1402C79.2665 73.1692 79.2374 73.1692 79.2082 73.1982C79.1499 73.2563 79.2082 73.3144 79.2374 73.4015C79.2374 73.4305 79.2665 73.4595 79.2665 73.4886C79.8494 74.8532 80.4322 76.1017 81.1316 77.3211ZM78.2757 70.2367C78.2465 70.0044 78.2465 69.7431 78.2174 69.4818C78.2174 69.3657 78.1883 69.2205 78.1591 69.1044C78.1591 68.9592 78.0717 68.9011 77.926 68.9011C77.722 68.8721 77.5471 68.8431 77.3723 68.814C77.1974 68.814 77.0226 68.785 76.8769 68.9011C76.7603 69.4238 76.8186 70.7303 76.9934 71.0787C77.3431 71.1078 77.6637 70.9045 78.0134 70.8464C78.2757 70.6722 78.2757 70.469 78.2757 70.2367Z" fill="#DBFF00"/>
<path d="M90.7776 76.4791C90.8068 76.6824 90.8068 76.8856 90.7194 77.0598C90.4279 77.7566 89.3788 77.4953 88.796 77.6405C88.3589 77.7566 87.8926 77.7566 87.3972 77.8147C86.9309 77.8728 86.4938 77.9309 85.9983 77.9599C85.1241 78.018 84.279 78.1051 83.4047 78.1631C82.9093 78.1922 82.3847 78.2212 82.0059 77.9018C81.8019 77.7566 81.6853 77.4953 81.627 77.234C81.5396 76.8275 81.5396 76.4211 81.4813 76.0146L81.3065 74.708C81.219 73.837 81.1316 72.9369 81.0733 72.0659C81.0442 71.4852 81.0442 70.8755 81.015 70.2948C81.015 69.8593 80.9568 69.4238 80.9276 69.0173C80.8693 68.4656 80.8402 67.914 80.8985 67.3623C80.9276 67.2171 80.9276 67.0429 80.9859 66.8978C81.0442 66.7816 81.1316 66.6655 81.2482 66.6074C81.4813 66.4332 81.8019 66.3461 82.0933 66.288C82.4139 66.23 82.7344 66.1719 83.055 66.1429C83.7835 66.0558 84.4829 65.9977 85.2115 65.9396C85.4446 65.9106 85.7069 65.9396 85.9401 65.9396C86.2315 65.9396 86.4355 66.0848 86.5812 66.3171C86.6395 66.4623 86.756 66.6365 86.8143 66.7816C86.9017 66.9558 86.9017 67.1591 86.8726 67.3623V67.7107C86.9017 68.2914 86.96 68.8431 87.0183 69.4238V69.5689C86.9017 69.7722 86.756 69.9173 86.5229 69.9464C86.4063 69.9754 86.2898 70.0335 86.1441 70.0625C85.8235 70.1206 85.5029 70.1496 85.1532 70.1787C84.9201 70.0916 84.7744 69.8883 84.7161 69.627C84.6869 69.3947 84.5995 69.1625 84.5412 68.9011C84.1624 68.9011 83.7835 68.9302 83.4338 69.1334C83.4047 69.2496 83.3464 69.3657 83.3464 69.4818C83.3755 69.8593 83.4047 70.2658 83.4338 70.6722C83.5504 70.6722 83.6087 70.6722 83.667 70.6432C83.9875 70.6142 84.2789 70.5851 84.5995 70.5561C85.0949 70.469 85.4155 70.8174 85.4446 71.1949L85.6195 72.153C85.6486 72.3562 85.6486 72.5304 85.6195 72.7047C85.6195 72.9369 85.5029 73.1111 85.2989 73.1982C85.1532 73.2563 85.0075 73.2853 84.8618 73.3144C84.6578 73.3434 84.4538 73.3724 84.2498 73.3724C84.1041 73.4015 83.9875 73.4305 83.8418 73.4595C83.7253 73.4886 83.9875 74.8242 84.0167 74.9113C84.0167 75.0274 84.0458 75.1435 84.1041 75.2597C84.279 75.521 84.6578 75.521 84.9492 75.492C86.6395 75.3178 88.3006 75.1726 89.9617 75.0564C90.1657 75.0564 90.3697 75.0274 90.4862 75.1726C90.5737 75.2597 90.6028 75.3758 90.6319 75.492C90.7194 75.8694 90.7776 76.1597 90.7776 76.4791ZM91.0108 74.4177C90.9816 74.3015 90.9525 74.1854 90.8651 74.0693C90.6902 73.7789 90.2531 73.9241 89.9617 73.9241C89.8451 73.9241 89.6994 73.9531 89.612 74.0693C89.5537 74.1273 89.5537 74.2144 89.5245 74.2725C89.4371 74.4467 89.2914 74.5919 89.0874 74.65C89 74.679 88.9125 74.679 88.8251 74.679C88.388 74.708 87.9509 74.708 87.5137 74.7371C87.4554 74.7371 87.368 74.7371 87.2806 74.708C87.2223 74.679 87.1932 74.65 87.164 74.5919C87.0766 74.4467 87.0766 74.2725 87.0766 74.1273C87.1057 73.5176 87.1932 72.9369 87.2223 72.3272C87.2806 71.6304 87.3389 70.9626 87.4263 70.2658C87.572 68.9592 87.776 67.6527 88.0674 66.3461C88.0966 66.2009 88.1549 66.0558 88.2131 65.9106C88.388 65.6783 88.6794 65.5622 88.9708 65.5041C89.5245 65.3589 90.0491 65.3299 90.6028 65.4751C90.6611 65.4751 90.7194 65.5041 90.7776 65.5332C90.9816 65.6493 91.0399 65.8816 91.0982 66.0848C91.3313 66.9558 91.5645 67.8269 91.7976 68.7269C92.3805 70.9336 92.8759 73.1402 93.313 75.3758C93.3713 75.7242 93.4296 76.0726 93.517 76.392C93.5461 76.5662 93.5753 76.7404 93.5461 76.8856C93.4004 77.4082 92.1765 77.4373 91.8268 77.1469C91.5936 76.9727 91.5062 76.6243 91.4188 76.334C91.4188 76.3049 91.4188 76.2759 91.3896 76.2178C91.3022 75.6662 91.1565 75.0274 91.0108 74.4177ZM90.4279 72.124C90.6028 72.0078 90.5445 71.7756 90.5154 71.6013C90.4279 71.34 90.3697 71.0787 90.3114 70.8465C90.2239 70.5271 90.1074 70.2077 90.0491 69.9173H89.9908C89.8451 69.9173 89.816 70.7593 89.816 70.7593C89.7868 71.1949 89.7285 71.5723 89.6702 71.9788C89.6411 72.0659 89.6411 72.182 89.7285 72.2401H89.8451C89.9908 72.2401 90.1365 72.2401 90.2531 72.2111C90.2822 72.182 90.3405 72.182 90.3697 72.153C90.3697 72.153 90.3988 72.153 90.4279 72.124Z" fill="#DBFF00"/>
<path d="M92.6138 68.0012C92.0892 68.0593 91.9144 67.9432 91.8561 67.4205C91.7978 67.0141 91.7687 66.6076 91.7395 66.2011C91.7395 66.0849 91.7104 65.9978 91.7395 65.8817C91.7395 65.8236 91.7687 65.7075 91.8269 65.6494C91.9727 65.5043 92.1184 65.3301 92.3515 65.301C92.8178 65.2139 93.2549 65.1268 93.7212 65.0107C93.9835 64.9526 94.2749 64.9236 94.5372 64.8945C94.6537 64.8655 94.7703 64.8655 94.916 64.8655C95.732 64.8074 96.548 64.7203 97.3639 64.5752C97.5097 64.5461 97.6845 64.5171 97.8594 64.5171C98.1799 64.5171 98.3548 64.6623 98.4131 64.9526C98.4714 65.1268 98.4713 65.3591 98.4713 65.5333C98.4713 65.8817 98.5005 66.2301 98.5005 66.5785C98.5296 67.1592 98.2965 67.3334 97.8011 67.3625L96.752 67.4496C96.6937 67.4496 96.6063 67.4496 96.5188 67.4786C96.5188 67.5947 96.548 67.6818 96.548 67.7399C96.6645 69.1045 96.7811 70.4691 96.8685 71.8338V72.908C96.8685 73.4016 96.9851 73.9242 96.9268 74.4469C96.8685 74.7372 96.956 75.0275 96.956 75.2889C96.9851 75.5792 97.0142 75.8405 97.0142 76.1018C97.0434 76.4212 96.9268 76.7115 96.6937 76.9148C96.6645 76.9438 96.6062 77.0019 96.548 77.0019C95.9943 77.2632 95.4406 77.3213 94.8869 77.089C94.508 76.9438 94.304 76.6825 94.2457 76.247C94.0126 74.6501 93.9252 73.0532 93.7795 71.4854C93.7503 70.7885 93.7503 70.0917 93.7503 69.4239V68.2335C93.7503 68.1174 93.7212 68.0012 93.7212 67.856C93.3423 67.9141 92.9635 67.9432 92.6138 68.0012Z" fill="#DBFF00"/>
<path d="M98.7918 69.4529C98.7918 68.9884 98.821 68.5238 98.821 68.0593C98.821 67.5076 98.7627 66.985 98.7627 66.4333C98.7627 65.9978 98.7627 65.5623 98.8793 65.1268C98.9667 64.8655 99.1124 64.7203 99.4038 64.6913C99.6952 64.6622 99.9575 64.6042 100.22 64.5461L100.919 64.459C101.152 64.459 101.327 64.6042 101.385 64.8655C101.415 65.1268 101.444 65.4462 101.473 65.7365C101.531 66.3753 101.56 67.014 101.619 67.6528C101.677 68.4367 101.735 69.2497 101.793 70.0626C101.823 70.5852 101.881 71.1079 101.881 71.6305C101.881 71.7176 101.91 71.8047 101.881 71.8918C101.823 72.2112 101.881 72.5306 101.91 72.879C101.939 73.2274 101.968 73.5758 101.939 73.9532C101.939 74.2145 101.968 74.5049 101.968 74.7662C101.997 75.0275 102.027 75.2888 102.027 75.5792C102.056 75.8985 101.939 76.1308 101.706 76.3631C101.648 76.3921 101.619 76.4502 101.56 76.4502C101.181 76.5954 100.803 76.7696 100.366 76.6534C100.249 76.6244 100.074 76.6244 99.9575 76.5954C99.5204 76.4502 99.2873 76.1889 99.229 75.7243C99.0541 74.621 98.9958 73.4887 98.821 72.0079C98.8501 71.3982 98.821 70.411 98.7918 69.4529Z" fill="#DBFF00"/>
<path d="M106.106 68.1462C106.165 67.5945 106.194 67.0429 106.252 66.4912C106.252 66.3461 106.281 66.2009 106.31 66.0557C106.369 65.7654 106.398 65.475 106.456 65.1847C106.514 64.9234 106.543 64.633 106.602 64.3427C106.631 64.1975 106.66 64.0523 106.835 63.9652C107.447 63.9362 108.088 63.791 108.729 63.9072C108.846 63.9362 108.962 63.9652 109.079 64.0233C109.079 64.1395 109.108 64.2266 109.108 64.3137V64.4298C109.021 64.9234 108.991 65.446 108.962 65.9396C108.933 66.6945 108.875 67.4203 108.817 68.1752C108.758 68.785 108.671 69.3947 108.613 70.0334C108.496 70.8174 108.409 71.6013 108.321 72.3852C108.263 72.9369 108.175 73.4885 108.059 74.0402C108.059 74.0692 108.059 74.1273 108.03 74.1563C107.797 74.6209 107.709 75.1435 107.563 75.6371C107.476 75.9274 107.272 76.0726 106.981 76.0726C106.777 76.0726 106.573 76.1016 106.369 76.1307C106.136 76.1597 105.961 76.1016 105.815 75.9565C105.786 75.9565 105.786 75.9565 105.786 75.9274C105.349 75.6661 105.086 75.2596 104.941 74.7951C104.853 74.4757 104.678 74.1854 104.533 73.866L103.833 72.1239C103.629 71.5723 103.454 70.9916 103.221 70.469C103.017 69.9754 102.842 69.4818 102.726 68.9882C102.609 68.6108 102.493 68.2333 102.347 67.8849C102.23 67.5365 102.143 67.1881 102.056 66.8397C101.939 66.3461 101.793 65.8525 101.677 65.3589C101.502 64.7201 101.852 64.1975 102.434 64.1104C102.755 64.0814 103.046 64.0524 103.396 64.0233C103.717 63.9943 103.979 64.1685 104.066 64.5169C104.183 64.9234 104.358 65.3008 104.533 65.7073C104.678 66.0267 104.795 66.3751 104.912 66.6945C104.97 66.7816 104.97 66.9268 105.028 66.9848C105.32 67.5655 105.524 68.1752 105.728 68.7559C105.786 68.9592 105.873 69.1334 105.932 69.3366C105.961 69.3366 105.961 69.3366 105.99 69.3076C106.019 68.9301 106.077 68.5527 106.106 68.1462Z" fill="#DBFF00"/>
<path d="M114.849 67.3915C114.703 67.4205 114.587 67.5076 114.47 67.5367C114.15 67.5947 113.8 67.6238 113.479 67.6528C113.217 67.5657 113.1 67.3625 113.042 67.1012C112.984 66.8689 112.926 66.6366 112.867 66.3753C112.488 66.3753 112.11 66.4043 111.76 66.6076L111.673 66.956C111.702 67.3625 111.731 67.7399 111.789 68.1754C111.877 68.1754 111.935 68.1754 112.022 68.1464C112.343 68.0883 112.634 68.0883 112.955 68.0303C113.45 67.9432 113.771 68.2916 113.829 68.669C113.887 68.9884 113.946 69.3078 114.004 69.6562C114.033 69.8594 114.033 70.0336 114.033 70.2369C114.004 70.4691 113.887 70.6434 113.683 70.7014C113.538 70.7595 113.363 70.7885 113.246 70.8176C113.013 70.8466 112.809 70.8756 112.605 70.9047C112.459 70.9337 112.343 70.9627 112.197 71.0208C112.197 71.0498 112.168 71.0789 112.168 71.1369C112.197 71.6015 112.255 72.066 112.285 72.5306C112.343 72.85 112.518 73.0242 112.838 73.0242H112.896C113.071 72.9951 113.246 72.9951 113.45 72.9951C113.625 72.7048 113.479 72.4145 113.567 72.066C113.596 72.008 113.683 71.9209 113.858 71.8918C114.324 71.7176 114.791 71.6886 115.286 71.6596C115.49 71.6305 115.636 71.7757 115.752 71.9209C115.84 72.008 115.869 72.1241 115.898 72.2402C115.956 72.5596 116.015 72.85 116.044 73.1984C116.073 73.5468 116.102 73.8952 116.102 74.2436C116.102 74.534 115.986 74.7662 115.782 74.9405C115.286 75.376 114.47 75.4631 113.858 75.5792C113.13 75.7244 112.43 75.7534 111.702 75.7244C111.294 75.6953 110.886 75.6663 110.565 75.434C110.186 75.1437 110.041 74.7082 109.895 74.2436C109.662 73.5178 109.662 72.7338 109.574 71.9789C109.487 71.195 109.429 70.4111 109.37 69.6271C109.341 69.0465 109.341 68.4367 109.312 67.8561C109.254 66.7527 108.962 65.4752 109.749 64.5171C110.041 64.1396 110.478 63.9074 110.915 63.7622C111.76 63.5009 112.663 63.5009 113.538 63.4138C113.771 63.3847 114.033 63.4138 114.266 63.4138C114.558 63.4138 114.762 63.559 114.907 63.7912C114.995 63.9364 115.082 64.1106 115.17 64.2558C115.257 64.43 115.228 64.6623 115.228 64.8365V65.1849C115.257 65.7656 115.315 66.3463 115.374 66.9269V67.0721C115.228 67.1883 115.082 67.3334 114.849 67.3915Z" fill="#DBFF00"/>
<path d="M127.555 70.6431C127.643 71.0787 127.672 71.4851 127.643 71.9207C127.643 72.24 127.672 72.5884 127.701 72.9369C127.701 73.2853 127.73 73.6337 127.584 73.9531C127.439 74.2144 127.264 74.4176 126.943 74.5628C126.477 74.766 125.981 74.8241 125.486 74.9112C124.816 74.9983 123.271 75.2015 122.601 75.2887C122.076 75.3758 121.523 75.4338 120.94 75.4048C120.678 75.4048 120.444 75.3177 120.211 75.1725C119.949 74.9983 119.803 74.766 119.774 74.4467C119.22 70.8754 119.366 67.2752 118.696 63.7039C118.638 63.2684 118.521 62.8329 118.696 62.4264C118.842 62.0199 119.25 61.7296 119.658 61.5844C120.299 61.3521 121.056 61.3521 121.727 61.2941C122.601 61.207 123.475 61.1489 124.349 61.0908C124.641 61.0908 124.932 61.1199 125.224 61.1489C125.515 61.1779 125.777 61.3231 125.923 61.5844C125.981 61.7005 126.069 61.8457 126.127 61.9619C126.244 62.2232 126.302 62.5135 126.244 62.8038C126.244 62.92 126.215 63.0071 126.244 63.0942C126.244 63.5587 126.302 64.0233 126.302 64.4588C126.302 64.7782 126.448 65.3589 126.215 65.6202C126.127 65.7073 125.981 65.7654 125.836 65.7944C125.311 65.8815 124.787 65.9686 124.262 65.9396C124.058 65.9105 123.825 65.9105 123.708 65.7654C123.621 65.6492 123.592 65.5041 123.563 65.3298C123.533 65.1556 123.533 64.9814 123.504 64.8072C123.504 64.7201 123.475 64.633 123.417 64.575H123.388C123.329 64.5169 123.271 64.5459 123.184 64.5169C123.009 64.5459 122.863 64.5169 122.688 64.5169C122.572 64.5459 122.222 64.604 122.193 64.6911C122.076 64.8653 122.047 65.0395 122.076 65.2137C122.105 65.8815 122.135 66.5783 122.193 67.2752C122.222 67.7397 122.339 68.2043 122.397 68.6688C122.426 69.3076 122.426 69.9463 122.484 70.5851C122.484 70.8754 122.484 71.1367 122.543 71.369C122.601 71.7174 122.805 71.9207 123.155 71.9207C123.388 71.9207 124.524 71.8336 124.787 71.8045C124.903 71.7174 124.932 71.5722 124.903 71.4271C124.903 71.0787 124.903 70.7593 124.874 70.4109C124.845 70.2076 124.932 70.0334 125.136 69.8883C125.573 69.656 126.04 69.5398 126.535 69.5979C127.06 69.7431 127.439 70.0915 127.555 70.6431Z" fill="#DBFF00"/>
<path d="M132.946 73.5177C132.538 73.6338 132.16 73.6628 131.752 73.7209C131.285 73.808 130.819 73.9532 130.353 74.0112C129.887 74.0984 129.391 74.0693 128.983 73.837C128.517 73.6048 128.255 73.1402 128.08 72.6757C127.905 72.2111 127.876 71.6885 127.817 71.1949C127.73 70.3239 127.672 69.4528 127.643 68.5818C127.613 67.914 127.613 67.2462 127.613 66.5784V65.0396C127.584 64.6622 127.584 64.2847 127.555 63.9363C127.555 63.8202 127.555 63.704 127.613 63.5879C127.701 63.3266 127.788 63.0362 127.905 62.804C128.08 62.4555 128.4 62.2523 128.75 62.1942C129.362 62.0781 129.945 61.991 130.586 62.02H131.693C131.985 62.02 132.305 62.0781 132.597 62.1071C132.801 62.1652 132.976 62.2813 133.092 62.4555C133.18 62.6588 133.296 62.833 133.354 63.0362C133.471 63.3846 133.588 63.7621 133.675 64.1395C133.704 64.3428 133.704 64.6041 133.704 64.8073C133.762 65.359 133.792 65.9397 133.85 66.4913C133.85 66.7817 133.85 67.043 133.879 67.3043C133.908 67.7688 133.908 68.2044 133.937 68.6399C133.996 69.8013 134.112 70.9336 134.025 72.124C134.025 72.2111 133.996 72.3273 133.996 72.4144C133.85 73.0531 133.529 73.3435 132.946 73.5177ZM130.586 65.0106C130.207 65.0106 130.003 65.3009 130.032 65.6493C130.032 65.9977 130.061 66.3462 130.091 66.6946C130.12 67.014 130.178 67.3624 130.236 67.6817C130.353 68.4657 130.324 69.2786 130.382 70.0626C130.382 70.3529 130.411 70.6433 130.469 70.9046C130.499 71.1368 130.79 71.282 130.994 71.253C131.14 71.1949 131.256 71.1659 131.402 71.1078C131.548 71.0207 131.664 70.9336 131.664 70.7304C131.664 70.469 131.664 70.2077 131.635 69.9464C131.635 69.6851 131.577 69.4528 131.577 69.1915C131.577 68.8431 131.577 68.4947 131.518 68.1463C131.431 67.4785 131.344 66.8397 131.256 66.172C131.198 65.8235 131.169 65.4171 130.994 65.0977C130.848 65.0106 130.732 64.9815 130.586 65.0106Z" fill="#DBFF00"/>
<path d="M118.667 58.9714C119.162 58.7682 119.716 58.6521 120.27 58.565C121.26 58.4198 122.28 58.4779 123.271 58.3617C124.145 58.2456 124.058 58.1004 124.029 57.3165V48.6352H128.459C128.429 48.6352 128.488 58.3908 128.459 59.3779C129.712 59.2908 130.965 59.0585 132.218 59.2037C133.529 59.3489 134.841 59.9005 135.511 61.0619L135.569 61.1781L135.627 61.3232C135.657 61.3523 135.657 61.3813 135.686 61.4103C135.686 61.4394 135.715 61.4684 135.715 61.4684V19.6008C135.715 17.0167 134.637 14.6649 132.917 12.9519C131.198 11.2388 128.837 10.1936 126.244 10.1936C123.65 10.1936 121.29 11.2388 119.57 12.9519C117.851 14.6649 116.773 17.0167 116.773 19.6008V58.3907C116.773 58.7972 116.598 59.6102 116.773 59.9586C116.802 60.0457 116.773 60.1909 116.773 60.278C117.297 59.6683 117.938 59.2618 118.667 58.9714ZM124.029 19.6008C124.029 18.991 124.262 18.4394 124.67 18.0619C125.078 17.6555 125.632 17.3941 126.215 17.3941C126.827 17.3941 127.38 17.6555 127.788 18.0619C128.196 18.4394 128.429 19.0201 128.429 19.6008V42.8864H124V19.6008H124.029Z" fill="#2E2E2E"/>
<path d="M99.1123 61.9038C100.977 61.7587 102.755 60.9457 104.649 61.4683C104.853 61.5264 105.028 61.5844 105.232 61.5554C105.436 61.5264 105.64 61.4393 105.815 61.3522C107.156 60.8005 110.332 61.8167 110.886 60.365C111.061 59.9295 110.973 59.2327 111.031 58.7681L111.556 52.6709C112.081 46.4865 112.634 40.3022 113.159 34.1179C113.654 28.282 114.15 22.4751 114.674 16.6392C114.82 14.839 114.995 13.0099 115.14 11.2097H107.913L104.912 58.7391L101.881 11.2097H94.6536L99.0249 61.8748C99.054 61.9038 99.0832 61.9038 99.1123 61.9038Z" fill="#2E2E2E"/>
<path d="M34.6501 11.1807V56.2421H27.4229V11.1807H34.6501Z" fill="#2E2E2E"/>
<path d="M49.3376 27.498L45.0828 13.8228V11.2097H37.8264V67.0719H45.0828V32.8984L49.3376 47.7641V67.0719H56.5648V11.2097H49.3376V27.498Z" fill="#2E2E2E"/>
<path d="M63.2966 66.0267C63.7337 64.9234 64.6663 64.0233 65.8611 63.5588L65.8903 63.5297C66.7937 63.2104 67.6971 63.1523 68.3382 63.0942C68.4548 63.0942 68.5713 63.0652 68.6879 63.0652C69.5913 62.9781 70.4656 62.92 71.3398 62.862H71.6604C71.9227 62.862 72.1558 62.891 72.3598 62.891V59.8714H67.0268V49.6803H72.389V43.9025H67.0268V18.4103H72.389V11.2097H59.7996V67.0719H63.0635C63.0635 66.7526 63.1509 66.3751 63.2966 66.0267Z" fill="#2E2E2E"/>
<path d="M74.9245 63.733C75.1868 63.8201 75.5073 63.8491 76.0028 63.7911C77.1684 63.6459 78.3633 63.4426 79.5581 63.6169C80.3158 63.733 80.8404 63.762 81.5689 63.6169V48.4609H83.8711C84.8037 48.4609 85.27 48.6061 85.4448 48.8383C85.8528 49.5061 85.9985 50.8127 85.9985 52.5838V61.4683C85.9985 61.8458 85.9111 62.3103 85.9985 62.6878C86.2316 63.6749 87.3099 63.1523 88.155 62.891C88.8836 62.6587 89.6413 62.5716 90.3698 62.6297C90.603 62.6587 90.8652 62.6878 91.0984 62.6878C91.3607 62.6878 91.6229 62.6297 91.8852 62.5716C92.9926 62.3103 93.1966 62.3684 93.1966 61.2941V55.8647C93.1966 52.787 92.7595 50.232 91.4772 48.2286C91.4481 48.1705 91.4189 48.1125 91.3607 48.0544C92.4972 46.5737 93.1966 44.7154 93.1966 42.683V19.3103C93.1966 16.9005 92.0309 14.81 90.1076 13.3002C88.4465 12.0227 86.2316 11.2097 83.842 11.2097H74.3125V61.207C74.3125 62.3393 74.0502 63.4427 74.9245 63.733ZM81.5398 18.4103H83.842C84.5997 18.4103 85.2408 18.6135 85.6779 18.9619C85.8528 19.1071 85.9694 19.2232 85.9694 19.3103V40.8539C85.9694 41.3475 85.7654 41.783 85.4157 42.1024C85.0368 42.4508 84.4831 42.683 83.8129 42.683H81.5106V18.4103H81.5398Z" fill="#2E2E2E"/>
<path d="M22.9057 50.4933V11.1807H15.6785L11.4529 21.1395L7.22725 11.1807H0V67.0429H7.22725V25.3495L10.4037 32.8113L11.0449 34.3211H11.8608L12.502 32.8113L15.6785 25.3495C15.6785 36.4116 15.591 47.4737 15.7076 58.5358C15.7659 63.5297 16.407 67.0719 22.9057 67.0719H34.6791V59.8714H22.9057V50.4933Z" fill="#2E2E2E"/>
<path d="M136.064 72.4142C136.094 72.5013 136.094 72.6175 136.094 72.6755C136.094 72.7917 136.123 72.9078 136.123 72.9949C136.152 73.1982 136.152 73.4014 136.064 73.6047C136.006 73.7208 135.919 73.7789 135.802 73.866C135.715 73.924 135.569 73.924 135.452 73.924C135.365 73.924 135.278 73.9531 135.161 73.9531H134.986C134.87 73.924 134.753 73.8369 134.695 73.7208C134.637 73.5756 134.607 73.4595 134.607 73.3143C134.607 73.1691 134.578 73.053 134.549 72.9078C134.549 72.8207 134.52 72.7046 134.549 72.6465C134.607 72.5594 134.666 72.4723 134.753 72.4433C135.074 72.2981 135.919 72.0658 136.064 72.4142Z" fill="#DBFF00"/>
<path d="M34.0381 0.873535C34.1547 1.28002 34.213 1.7736 34.2421 2.18008C34.3004 2.76077 34.3295 3.25436 34.3878 3.74794C34.4752 4.73511 34.4752 5.72228 34.0672 6.59332C33.7758 7.11594 33.397 7.46435 32.8433 7.78373C32.377 7.98697 31.7942 8.04504 31.2113 8.10311C30.8033 8.13214 30.3953 8.16118 29.8999 8.21924C29.6376 8.24828 29.3171 8.27731 29.0548 8.21924C28.472 8.10311 27.9183 7.66759 27.7143 7.0869C27.4228 6.44814 27.3646 5.86746 27.3063 5.2287C27.248 4.58994 27.1023 3.92215 27.044 3.25436C27.0149 2.84787 26.9566 2.35429 27.1023 2.00588C27.3063 1.57036 27.6851 1.22195 28.0931 1.01871C29.3171 0.292846 33.3096 -0.781428 34.0381 0.873535Z" fill="#2E2E2E"/>
</g>
<defs>
<clipPath id="clip0_254_617">
<rect width="136.14" height="80" fill="white"/>
</clipPath>
</defs>
</svg>
