<svg width="758" height="310" viewBox="0 0 758 310" fill="none" xmlns="http://www.w3.org/2000/svg">
<g clip-path="url(#clip0_1404_9806)">
<path d="M404.684 290.743C405.022 292.426 405.134 293.997 405.022 295.68C405.022 296.914 405.134 298.261 405.247 299.607C405.247 300.954 405.36 302.3 404.797 303.535C404.233 304.545 403.558 305.33 402.319 305.891C400.517 306.677 398.602 306.901 396.688 307.238C394.097 307.574 388.128 308.36 385.538 308.696C383.51 309.033 381.371 309.257 379.118 309.145C378.104 309.145 377.203 308.809 376.302 308.248C375.289 307.574 374.726 306.677 374.613 305.442C372.473 291.641 373.036 277.727 370.446 263.925C370.221 262.242 369.77 260.559 370.446 258.988C371.009 257.417 372.586 256.295 374.163 255.734C376.64 254.836 379.569 254.836 382.159 254.612C385.538 254.275 388.916 254.051 392.295 253.826C393.421 253.826 394.548 253.938 395.674 254.051C396.8 254.163 397.814 254.724 398.377 255.734C398.602 256.183 398.94 256.744 399.165 257.192C399.616 258.202 399.841 259.324 399.616 260.446C399.616 260.895 399.503 261.232 399.616 261.569C399.616 263.364 399.841 265.159 399.841 266.842C399.841 268.077 400.404 270.321 399.503 271.331C399.165 271.667 398.602 271.892 398.039 272.004C396.012 272.341 393.985 272.677 391.957 272.565C391.169 272.453 390.268 272.453 389.817 271.892C389.48 271.443 389.367 270.882 389.254 270.209C389.142 269.535 389.142 268.862 389.029 268.189C389.029 267.852 388.916 267.516 388.691 267.291H388.579C388.353 267.067 388.128 267.179 387.79 267.067C387.114 267.179 386.551 267.067 385.876 267.067C385.425 267.179 384.074 267.403 383.961 267.74C383.51 268.413 383.398 269.087 383.51 269.76C383.623 272.341 383.736 275.034 383.961 277.727C384.074 279.522 384.524 281.317 384.749 283.113C384.862 285.581 384.862 288.05 385.087 290.519C385.087 291.641 385.087 292.651 385.312 293.548C385.538 294.895 386.326 295.68 387.678 295.68C388.579 295.68 392.971 295.344 393.985 295.231C394.435 294.895 394.548 294.334 394.435 293.773C394.435 292.426 394.435 291.192 394.322 289.845C394.21 289.06 394.548 288.387 395.336 287.826C397.025 286.928 398.827 286.479 400.742 286.703C402.882 287.264 404.233 288.723 404.684 290.743Z" fill="#2E2E2E"/>
<path d="M429.349 298.822C430.024 299.944 430.7 301.29 430.137 302.412C429.349 303.983 426.533 304.095 424.956 304.095C424.168 304.208 423.154 304.208 422.478 303.759C421.915 303.422 421.578 302.861 421.24 302.3C420.113 300.28 418.987 298.261 417.973 296.241C416.96 294.445 416.171 292.426 414.933 290.743C414.933 291.977 414.82 293.211 414.933 294.333C415.27 297.026 415.608 299.719 415.383 302.412C415.27 303.534 414.82 304.208 413.806 304.544C412.004 305.218 410.09 305.554 408.175 304.993C407.049 304.657 406.711 304.32 406.711 303.086C406.598 300.617 406.486 298.261 406.26 295.792L405.585 289.733C405.472 288.723 405.247 287.601 405.247 286.479V281.99C405.247 281.429 405.247 280.868 405.134 280.195C404.571 277.39 404.458 274.472 404.346 271.667C404.346 271.443 404.346 271.218 404.233 270.994C404.121 268.413 404.008 265.72 403.783 263.139C403.783 261.905 403.783 260.671 404.233 259.436C404.458 258.763 404.796 258.314 405.359 257.978C406.26 257.417 407.161 257.08 408.175 257.08C412.117 256.743 415.834 256.294 419.775 256.07C421.803 255.958 424.055 256.294 425.407 257.865C427.321 260.222 426.983 264.037 426.983 266.842L427.321 273.575C427.434 275.146 427.434 276.829 427.096 278.4C426.758 279.858 425.857 281.429 424.393 282.102C423.717 282.327 423.042 282.551 422.366 282.664C422.141 282.776 422.028 282.776 421.915 282.888C421.69 283.112 421.915 283.337 422.028 283.673C422.028 283.786 422.141 283.898 422.141 284.01C424.393 289.284 426.646 294.109 429.349 298.822ZM418.311 271.443C418.199 270.545 418.199 269.535 418.086 268.525C418.086 268.076 417.973 267.515 417.861 267.066C417.861 266.505 417.523 266.281 416.96 266.281C416.171 266.169 415.496 266.057 414.82 265.944C414.144 265.944 413.468 265.832 412.905 266.281C412.455 268.301 412.68 273.35 413.356 274.697C414.707 274.809 415.946 274.023 417.298 273.799C418.311 273.126 418.311 272.34 418.311 271.443Z" fill="#2E2E2E"/>
<path d="M466.628 295.569C466.741 296.354 466.741 297.14 466.403 297.813C465.277 300.506 461.222 299.496 458.97 300.057C457.28 300.506 455.478 300.506 453.564 300.731C451.762 300.955 450.072 301.179 448.158 301.292C444.779 301.516 441.513 301.853 438.134 302.077C436.219 302.189 434.192 302.301 432.728 301.067C431.94 300.506 431.489 299.496 431.264 298.486C430.926 296.915 430.926 295.345 430.701 293.774L430.025 288.724C429.687 285.358 429.349 281.879 429.124 278.513C429.011 276.269 429.011 273.913 428.899 271.668C428.899 269.985 428.673 268.302 428.561 266.731C428.336 264.599 428.223 262.467 428.448 260.335C428.561 259.774 428.561 259.101 428.786 258.54C429.011 258.091 429.349 257.642 429.8 257.418C430.701 256.745 431.94 256.408 433.066 256.184C434.305 255.959 435.544 255.735 436.782 255.623C439.598 255.286 442.301 255.061 445.117 254.837C446.018 254.725 447.031 254.837 447.932 254.837C449.059 254.837 449.847 255.398 450.41 256.296C450.635 256.857 451.086 257.53 451.311 258.091C451.649 258.764 451.649 259.55 451.536 260.335V261.682C451.649 263.926 451.874 266.058 452.1 268.302V268.863C451.649 269.649 451.086 270.21 450.185 270.322C449.734 270.434 449.284 270.659 448.721 270.771C447.482 270.995 446.243 271.107 444.892 271.22C443.991 270.883 443.427 270.097 443.202 269.088C443.09 268.19 442.752 267.292 442.526 266.282C441.062 266.282 439.598 266.395 438.247 267.18C438.134 267.629 437.909 268.078 437.909 268.527C438.021 269.985 438.134 271.556 438.247 273.127C438.697 273.127 438.922 273.127 439.148 273.015C440.386 272.903 441.513 272.791 442.752 272.678C444.666 272.342 445.905 273.688 446.018 275.147L446.693 278.85C446.806 279.635 446.806 280.309 446.693 280.982C446.693 281.879 446.243 282.553 445.455 282.889C444.892 283.114 444.328 283.226 443.765 283.338C442.977 283.45 442.189 283.563 441.4 283.563C440.837 283.675 440.387 283.787 439.823 283.899C439.373 284.011 440.386 289.173 440.499 289.51C440.499 289.958 440.612 290.407 440.837 290.856C441.513 291.866 442.977 291.866 444.103 291.754C450.635 291.081 457.055 290.52 463.475 290.071C464.263 290.071 465.051 289.958 465.502 290.52C465.84 290.856 465.952 291.305 466.065 291.754C466.403 293.213 466.628 294.335 466.628 295.569ZM467.529 287.602C467.417 287.153 467.304 286.704 466.966 286.256C466.29 285.134 464.601 285.695 463.475 285.695C463.024 285.695 462.461 285.807 462.123 286.256C461.898 286.48 461.898 286.817 461.785 287.041C461.447 287.714 460.884 288.275 460.096 288.5C459.758 288.612 459.42 288.612 459.082 288.612C457.393 288.724 455.704 288.724 454.014 288.836C453.789 288.836 453.451 288.836 453.113 288.724C452.888 288.612 452.775 288.5 452.663 288.275C452.325 287.714 452.325 287.041 452.325 286.48C452.437 284.124 452.775 281.879 452.888 279.523C453.113 276.83 453.338 274.249 453.676 271.556C454.239 266.507 455.028 261.457 456.154 256.408C456.267 255.847 456.492 255.286 456.717 254.725C457.393 253.827 458.519 253.378 459.645 253.154C461.785 252.593 463.813 252.481 465.952 253.042C466.178 253.042 466.403 253.154 466.628 253.266C467.417 253.715 467.642 254.613 467.867 255.398C468.768 258.764 469.669 262.131 470.57 265.609C472.823 274.137 474.737 282.665 476.427 291.305C476.652 292.652 476.877 293.998 477.215 295.232C477.328 295.906 477.44 296.579 477.328 297.14C476.764 299.16 472.034 299.272 470.683 298.15C469.782 297.476 469.444 296.13 469.106 295.008C469.106 294.896 469.106 294.783 468.993 294.559C468.655 292.427 468.092 289.958 467.529 287.602ZM465.277 278.738C465.952 278.289 465.727 277.391 465.615 276.718C465.277 275.708 465.051 274.698 464.826 273.8C464.488 272.566 464.038 271.332 463.813 270.21H463.587C463.024 270.21 462.912 273.464 462.912 273.464C462.799 275.147 462.574 276.606 462.348 278.177C462.236 278.513 462.236 278.962 462.574 279.186H463.024C463.587 279.186 464.15 279.186 464.601 279.074C464.714 278.962 464.939 278.962 465.051 278.85C465.051 278.85 465.164 278.85 465.277 278.738Z" fill="#2E2E2E"/>
<path d="M473.723 262.803C471.696 263.027 471.02 262.579 470.795 260.559C470.57 258.988 470.457 257.417 470.344 255.846C470.344 255.397 470.232 255.061 470.344 254.612C470.344 254.387 470.457 253.938 470.682 253.714C471.246 253.153 471.809 252.48 472.71 252.368C474.512 252.031 476.201 251.694 478.003 251.245C479.017 251.021 480.143 250.909 481.157 250.797C481.607 250.684 482.058 250.684 482.621 250.684C485.774 250.46 488.928 250.123 492.081 249.562C492.644 249.45 493.32 249.338 493.996 249.338C495.235 249.338 495.91 249.899 496.136 251.021C496.361 251.694 496.361 252.592 496.361 253.265C496.361 254.612 496.474 255.958 496.474 257.305C496.586 259.549 495.685 260.222 493.771 260.334L489.716 260.671C489.491 260.671 489.153 260.671 488.815 260.783C488.815 261.232 488.928 261.569 488.928 261.793C489.378 267.067 489.829 272.341 490.167 277.615V281.766C490.167 283.674 490.617 285.694 490.392 287.713C490.167 288.835 490.504 289.958 490.504 290.967C490.617 292.09 490.73 293.099 490.73 294.109C490.842 295.344 490.392 296.466 489.491 297.251C489.378 297.363 489.153 297.588 488.928 297.588C486.788 298.598 484.648 298.822 482.508 297.924C481.044 297.363 480.256 296.353 480.03 294.67C479.129 288.499 478.791 282.327 478.228 276.268C478.116 273.575 478.116 270.882 478.116 268.301V263.701C478.116 263.252 478.003 262.803 478.003 262.242C476.539 262.466 475.075 262.579 473.723 262.803Z" fill="#2E2E2E"/>
<path d="M497.6 268.414C497.6 266.618 497.713 264.823 497.713 263.028C497.713 260.896 497.487 258.876 497.487 256.744C497.487 255.061 497.487 253.378 497.938 251.695C498.276 250.685 498.839 250.124 499.965 250.011C501.091 249.899 502.105 249.675 503.119 249.45L505.822 249.114C506.723 249.114 507.398 249.675 507.624 250.685C507.736 251.695 507.849 252.929 507.961 254.051C508.187 256.52 508.299 258.988 508.525 261.457C508.75 264.486 508.975 267.628 509.2 270.77C509.313 272.79 509.538 274.81 509.538 276.829C509.538 277.166 509.651 277.503 509.538 277.839C509.313 279.074 509.538 280.308 509.651 281.654C509.763 283.001 509.876 284.347 509.763 285.806C509.763 286.816 509.876 287.938 509.876 288.948C509.989 289.958 510.101 290.968 510.101 292.09C510.214 293.324 509.763 294.222 508.862 295.119C508.637 295.232 508.525 295.456 508.299 295.456C506.835 296.017 505.371 296.69 503.682 296.242C503.231 296.129 502.555 296.129 502.105 296.017C500.416 295.456 499.515 294.446 499.289 292.651C498.614 288.387 498.388 284.011 497.713 278.288C497.825 275.932 497.713 272.117 497.6 268.414Z" fill="#2E2E2E"/>
<path d="M525.869 263.364C526.094 261.232 526.207 259.1 526.432 256.968C526.432 256.407 526.545 255.846 526.657 255.285C526.883 254.162 526.995 253.04 527.22 251.918C527.446 250.908 527.558 249.786 527.784 248.664C527.896 248.103 528.009 247.542 528.685 247.206C531.05 247.093 533.527 246.532 536.005 246.981C536.456 247.093 536.906 247.206 537.357 247.43C537.357 247.879 537.469 248.215 537.469 248.552V249.001C537.131 250.908 537.019 252.928 536.906 254.836C536.794 257.753 536.568 260.558 536.343 263.476C536.118 265.832 535.78 268.189 535.555 270.657C535.104 273.687 534.766 276.716 534.428 279.746C534.203 281.878 533.865 284.01 533.415 286.142C533.415 286.254 533.415 286.479 533.302 286.591C532.401 288.386 532.063 290.406 531.5 292.314C531.162 293.436 530.374 293.997 529.248 293.997C528.459 293.997 527.671 294.109 526.883 294.221C525.982 294.333 525.306 294.109 524.743 293.548C524.63 293.548 524.63 293.548 524.63 293.436C522.941 292.426 521.927 290.855 521.364 289.059C521.026 287.825 520.35 286.703 519.787 285.469L517.084 278.736C516.296 276.604 515.62 274.36 514.719 272.34C513.931 270.433 513.255 268.525 512.804 266.618C512.354 265.159 511.903 263.7 511.34 262.354C510.89 261.007 510.552 259.661 510.214 258.314C509.764 256.407 509.2 254.499 508.75 252.592C508.074 250.123 509.426 248.103 511.678 247.767C512.917 247.654 514.043 247.542 515.395 247.43C516.634 247.318 517.647 247.991 517.985 249.337C518.436 250.908 519.111 252.367 519.787 253.938C520.35 255.172 520.801 256.519 521.251 257.753C521.477 258.09 521.477 258.651 521.702 258.875C522.828 261.119 523.616 263.476 524.405 265.72C524.63 266.505 524.968 267.179 525.193 267.964C525.306 267.964 525.306 267.964 525.418 267.852C525.531 266.393 525.756 264.935 525.869 263.364Z" fill="#2E2E2E"/>
<path d="M559.656 260.447C559.093 260.559 558.643 260.896 558.192 261.008C556.953 261.232 555.602 261.345 554.363 261.457C553.349 261.12 552.899 260.335 552.674 259.325C552.448 258.427 552.223 257.529 551.998 256.52C550.534 256.52 549.07 256.632 547.718 257.417L547.38 258.764C547.493 260.335 547.605 261.793 547.831 263.477C548.169 263.477 548.394 263.477 548.732 263.364C549.971 263.14 551.097 263.14 552.336 262.916C554.25 262.579 555.489 263.925 555.715 265.384C555.94 266.618 556.165 267.853 556.39 269.199C556.503 269.985 556.503 270.658 556.503 271.443C556.39 272.341 555.94 273.014 555.151 273.239C554.588 273.463 553.912 273.575 553.462 273.688C552.561 273.8 551.773 273.912 550.984 274.024C550.421 274.136 549.971 274.249 549.407 274.473C549.407 274.585 549.295 274.697 549.295 274.922C549.407 276.717 549.633 278.513 549.745 280.308C549.971 281.542 550.646 282.215 551.885 282.215H552.11C552.786 282.103 553.462 282.103 554.25 282.103C554.926 280.981 554.363 279.859 554.701 278.513C554.814 278.288 555.151 277.952 555.827 277.839C557.629 277.166 559.431 277.054 561.346 276.942C562.134 276.829 562.697 277.39 563.148 277.952C563.486 278.288 563.598 278.737 563.711 279.186C563.936 280.42 564.161 281.542 564.274 282.889C564.387 284.235 564.499 285.582 564.499 286.928C564.499 288.05 564.049 288.948 563.26 289.621C561.346 291.304 558.192 291.641 555.827 292.09C553.012 292.651 550.308 292.763 547.493 292.651C545.916 292.539 544.339 292.426 543.1 291.529C541.636 290.407 541.073 288.724 540.51 286.928C539.609 284.123 539.609 281.093 539.271 278.176C538.933 275.146 538.708 272.117 538.483 269.087C538.37 266.843 538.37 264.486 538.258 262.242C538.032 257.978 536.906 253.041 539.947 249.338C541.073 247.88 542.763 246.982 544.452 246.421C547.718 245.411 551.209 245.411 554.588 245.074C555.489 244.962 556.503 245.074 557.404 245.074C558.53 245.074 559.318 245.635 559.882 246.533C560.219 247.094 560.557 247.767 560.895 248.328C561.233 249.002 561.12 249.899 561.12 250.573V251.919C561.233 254.163 561.458 256.407 561.684 258.652V259.213C561.12 259.661 560.557 260.223 559.656 260.447Z" fill="#2E2E2E"/>
<path d="M608.761 273.014C609.099 274.697 609.211 276.268 609.099 277.951C609.099 279.185 609.211 280.532 609.324 281.878C609.324 283.225 609.437 284.571 608.873 285.806C608.31 286.816 607.635 287.601 606.396 288.162C604.594 288.948 602.679 289.172 600.764 289.509C598.174 289.845 592.205 290.631 589.614 290.967C587.587 291.304 585.447 291.528 583.195 291.416C582.181 291.416 581.28 291.08 580.379 290.519C579.366 289.845 578.802 288.948 578.69 287.713C576.55 273.912 577.113 259.998 574.523 246.196C574.297 244.513 573.847 242.83 574.523 241.259C575.086 239.688 576.663 238.566 578.239 238.005C580.717 237.107 583.645 237.107 586.236 236.883C589.614 236.546 592.993 236.322 596.372 236.097C597.498 236.097 598.625 236.209 599.751 236.322C600.877 236.434 601.891 236.995 602.454 238.005C602.679 238.454 603.017 239.015 603.242 239.463C603.693 240.473 603.918 241.595 603.693 242.717C603.693 243.166 603.58 243.503 603.693 243.84C603.693 245.635 603.918 247.43 603.918 249.113C603.918 250.348 604.481 252.592 603.58 253.602C603.242 253.938 602.679 254.163 602.116 254.275C600.089 254.612 598.061 254.948 596.034 254.836C595.246 254.724 594.345 254.724 593.894 254.163C593.556 253.714 593.444 253.153 593.331 252.48C593.218 251.806 593.218 251.133 593.106 250.46C593.106 250.123 592.993 249.787 592.768 249.562H592.655C592.43 249.338 592.205 249.45 591.867 249.338C591.191 249.45 590.628 249.338 589.952 249.338C589.502 249.45 588.15 249.674 588.038 250.011C587.587 250.684 587.475 251.358 587.587 252.031C587.7 254.612 587.812 257.305 588.038 259.998C588.15 261.793 588.601 263.588 588.826 265.384C588.939 267.852 588.939 270.321 589.164 272.79C589.164 273.912 589.164 274.921 589.389 275.819C589.614 277.166 590.403 277.951 591.754 277.951C592.655 277.951 597.048 277.614 598.061 277.502C598.512 277.166 598.624 276.605 598.512 276.044C598.512 274.697 598.512 273.463 598.399 272.116C598.287 271.331 598.624 270.658 599.413 270.097C601.102 269.199 602.904 268.75 604.819 268.974C606.846 269.535 608.31 270.882 608.761 273.014Z" fill="#2E2E2E"/>
<path d="M629.597 284.122C628.02 284.571 626.556 284.683 624.979 284.908C623.177 285.244 621.375 285.805 619.573 286.03C617.771 286.366 615.856 286.254 614.28 285.356C612.478 284.459 611.464 282.663 610.788 280.868C610.112 279.073 610 277.053 609.775 275.145C609.437 271.779 609.211 268.413 609.099 265.047C608.986 262.466 608.986 259.885 608.986 257.304V251.357C608.874 249.898 608.874 248.44 608.761 247.093C608.761 246.644 608.761 246.195 608.986 245.747C609.324 244.737 609.662 243.615 610.112 242.717C610.788 241.37 612.027 240.585 613.379 240.361C615.744 239.912 617.996 239.575 620.474 239.687H624.754C625.88 239.687 627.119 239.912 628.245 240.024C629.034 240.248 629.709 240.697 630.16 241.37C630.498 242.156 630.948 242.829 631.173 243.615C631.624 244.961 632.074 246.42 632.412 247.879C632.525 248.664 632.525 249.674 632.525 250.459C632.75 252.591 632.863 254.836 633.088 256.967C633.088 258.09 633.088 259.099 633.201 260.109C633.313 261.905 633.313 263.588 633.426 265.271C633.651 269.759 634.102 274.135 633.764 278.736C633.764 279.073 633.651 279.521 633.651 279.858C633.088 282.327 631.849 283.449 629.597 284.122ZM620.474 251.245C619.01 251.245 618.222 252.367 618.334 253.713C618.334 255.06 618.447 256.406 618.559 257.753C618.672 258.987 618.897 260.334 619.122 261.568C619.573 264.598 619.46 267.74 619.686 270.769C619.686 271.891 619.798 273.013 620.024 274.023C620.136 274.921 621.262 275.482 622.051 275.37C622.614 275.145 623.064 275.033 623.628 274.809C624.191 274.472 624.641 274.135 624.641 273.35C624.641 272.34 624.641 271.33 624.529 270.32C624.529 269.31 624.303 268.413 624.303 267.403C624.303 266.056 624.303 264.71 624.078 263.363C623.74 260.783 623.402 258.314 623.064 255.733C622.839 254.387 622.727 252.816 622.051 251.581C621.488 251.245 621.037 251.133 620.474 251.245Z" fill="#2E2E2E"/>
<path d="M574.41 227.905C576.325 227.119 578.465 226.67 580.605 226.334C584.434 225.773 588.376 225.997 592.205 225.548C595.584 225.099 595.246 224.538 595.133 221.509V187.958H612.252C612.14 187.958 612.365 225.661 612.252 229.476C617.095 229.139 621.938 228.241 626.781 228.802C631.849 229.363 636.917 231.495 639.508 235.984L639.733 236.433L639.958 236.994C640.071 237.106 640.071 237.218 640.183 237.33C640.183 237.442 640.296 237.555 640.296 237.555V75.7493C640.296 65.7627 636.129 56.6737 629.484 50.0534C622.839 43.4331 613.716 39.3936 603.693 39.3936C593.669 39.3936 584.547 43.4331 577.902 50.0534C571.257 56.6737 567.09 65.7627 567.09 75.7493V225.661C567.09 227.231 566.414 230.373 567.09 231.72C567.202 232.056 567.09 232.617 567.09 232.954C569.117 230.598 571.595 229.027 574.41 227.905ZM595.133 75.7493C595.133 73.3929 596.034 71.2609 597.611 69.8022C599.188 68.2313 601.328 67.2214 603.58 67.2214C605.945 67.2214 608.085 68.2313 609.662 69.8022C611.239 71.2609 612.14 73.5051 612.14 75.7493V165.741H595.021V75.7493H595.133Z" fill="#2E2E2E"/>
<path d="M498.839 239.24C506.047 238.679 512.917 235.537 520.237 237.557C521.026 237.781 521.702 238.005 522.49 237.893C523.278 237.781 524.067 237.444 524.742 237.108C529.923 234.976 542.199 238.903 544.339 233.293C545.015 231.609 544.677 228.916 544.902 227.121L546.93 203.557C548.957 179.657 551.097 155.756 553.124 131.856C555.039 109.302 556.953 86.8599 558.98 64.3058C559.544 57.3489 560.219 50.2797 560.783 43.3228H532.851L521.251 227.009L509.538 43.3228H481.607L498.501 239.127C498.613 239.24 498.726 239.24 498.839 239.24Z" fill="#2E2E2E"/>
<path d="M249.712 43.2095V217.358H221.781V43.2095H249.712Z" fill="#2E2E2E"/>
<path d="M306.475 106.272L290.031 53.4216V43.3228H261.988V259.213H290.031V127.143L306.475 184.594V259.213H334.406V43.3228H306.475V106.272Z" fill="#2E2E2E"/>
<path d="M360.422 255.173C362.112 250.909 365.716 247.431 370.333 245.636L370.446 245.523C373.937 244.289 377.429 244.065 379.907 243.84C380.357 243.84 380.808 243.728 381.258 243.728C384.749 243.391 388.128 243.167 391.507 242.943H392.746C393.759 242.943 394.66 243.055 395.449 243.055V231.385H374.838V192H395.561V169.67H374.838V71.1506H395.561V43.3228H346.907V259.213H359.521C359.521 257.979 359.859 256.52 360.422 255.173Z" fill="#2E2E2E"/>
<path d="M405.359 246.309C406.373 246.646 407.612 246.758 409.527 246.533C414.032 245.972 418.649 245.187 423.267 245.86C426.195 246.309 428.222 246.421 431.038 245.86V187.287H439.935C443.539 187.287 445.341 187.848 446.017 188.746C447.594 191.326 448.157 196.376 448.157 203.221V237.557C448.157 239.015 447.819 240.811 448.157 242.269C449.058 246.085 453.225 244.065 456.491 243.055C459.307 242.157 462.235 241.821 465.051 242.045C465.952 242.157 466.965 242.269 467.866 242.269C468.88 242.269 469.894 242.045 470.907 241.821C475.187 240.811 475.976 241.035 475.976 236.883V215.9C475.976 204.006 474.286 194.132 469.331 186.389C469.218 186.165 469.105 185.94 468.88 185.716C473.273 179.993 475.976 172.812 475.976 164.957V74.6291C475.976 65.3157 471.471 57.2367 464.037 51.4018C457.618 46.4646 449.058 43.3228 439.823 43.3228H402.994V236.547C402.994 240.923 401.981 245.187 405.359 246.309ZM430.925 71.1506H439.823C442.751 71.1506 445.229 71.9361 446.918 73.2826C447.594 73.8436 448.044 74.2924 448.044 74.6291V157.888C448.044 159.796 447.256 161.479 445.905 162.713C444.44 164.06 442.301 164.957 439.71 164.957H430.813V71.1506H430.925Z" fill="#2E2E2E"/>
<path d="M204.324 195.14V43.2095H176.392L160.062 81.6972L143.731 43.2095H115.8V259.1H143.731V97.9675L156.007 126.805L158.485 132.64H161.639L164.116 126.805L176.392 97.9675C176.392 140.719 176.055 183.471 176.505 226.222C176.73 245.522 179.208 259.212 204.324 259.212H249.824V231.384H204.324V195.14Z" fill="#2E2E2E"/>
<path d="M641.648 279.858C641.76 280.195 641.76 280.643 641.76 280.868C641.76 281.317 641.873 281.765 641.873 282.102C641.986 282.888 641.986 283.673 641.648 284.458C641.423 284.907 641.085 285.132 640.634 285.468C640.296 285.693 639.733 285.693 639.283 285.693C638.945 285.693 638.607 285.805 638.156 285.805H637.481C637.03 285.693 636.58 285.356 636.354 284.907C636.129 284.346 636.016 283.897 636.016 283.336C636.016 282.775 635.904 282.326 635.791 281.765C635.791 281.429 635.679 280.98 635.791 280.756C636.017 280.419 636.242 280.082 636.58 279.97C637.819 279.409 641.085 278.511 641.648 279.858Z" fill="#2E2E2E"/>
<path d="M247.346 3.37594C247.797 4.94687 248.022 6.85442 248.135 8.42535C248.36 10.6695 248.473 12.5771 248.698 14.4846C249.036 18.2997 249.036 22.1148 247.459 25.4811C246.333 27.5009 244.869 28.8474 242.729 30.0817C240.927 30.8671 238.674 31.0916 236.422 31.316C234.845 31.4282 233.268 31.5404 231.354 31.7648C230.34 31.877 229.101 31.9892 228.087 31.7648C225.835 31.316 223.695 29.6329 222.907 27.3887C221.78 24.9201 221.555 22.6759 221.33 20.2073C221.105 17.7387 220.542 15.1579 220.316 12.5771C220.204 11.0062 219.978 9.0986 220.542 7.75209C221.33 6.06896 222.794 4.72245 224.371 3.93698C229.101 1.13176 244.531 -3.01997 247.346 3.37594Z" fill="#2E2E2E"/>
</g>
<defs>
<clipPath id="clip0_1404_9806">
<rect width="526.14" height="309.175" fill="white" transform="translate(115.8)"/>
</clipPath>
</defs>
</svg>
