<svg width="20" height="20" viewBox="0 0 20 20" fill="none" xmlns="http://www.w3.org/2000/svg">
<g clip-path="url(#clip0_1200_12796)">
<path d="M11.7081 5.00002C12.522 5.15882 13.2701 5.5569 13.8565 6.1433C14.4429 6.7297 14.8409 7.47774 14.9997 8.29169M11.7081 1.66669C13.3991 1.85455 14.9761 2.61183 16.1799 3.81419C17.3838 5.01655 18.1431 6.59253 18.3331 8.28335M8.52222 11.5526C7.52091 10.5513 6.73025 9.41906 6.15025 8.21104C6.10036 8.10714 6.07542 8.05518 6.05625 7.98944C5.98815 7.75581 6.03707 7.46893 6.17874 7.27107C6.21861 7.21539 6.26624 7.16776 6.3615 7.0725C6.65284 6.78117 6.79851 6.6355 6.89375 6.48901C7.25291 5.93661 7.25291 5.22446 6.89375 4.67205C6.79851 4.52557 6.65284 4.3799 6.3615 4.08856L6.19911 3.92617C5.75624 3.4833 5.53481 3.26186 5.29699 3.14158C4.82402 2.90235 4.26547 2.90235 3.7925 3.14158C3.55468 3.26186 3.33325 3.4833 2.89038 3.92617L2.75902 4.05753C2.31767 4.49888 2.09699 4.71956 1.92845 5.01958C1.74143 5.35251 1.60696 5.86958 1.6081 6.25143C1.60912 6.59556 1.67588 6.83074 1.80938 7.30111C2.52686 9.82894 3.88059 12.2142 5.87057 14.2042C7.86055 16.1942 10.2459 17.5479 12.7737 18.2654C13.2441 18.3989 13.4792 18.4657 13.8234 18.4667C14.2052 18.4678 14.7223 18.3334 15.0552 18.1464C15.3552 17.9778 15.5759 17.7571 16.0173 17.3158L16.1486 17.1844C16.5915 16.7415 16.8129 16.5201 16.9332 16.2823C17.1724 15.8093 17.1724 15.2508 16.9332 14.7778C16.8129 14.54 16.5915 14.3186 16.1486 13.8757L15.9862 13.7133C15.6949 13.422 15.5492 13.2763 15.4028 13.1811C14.8503 12.8219 14.1382 12.8219 13.5858 13.1811C13.4393 13.2763 13.2936 13.422 13.0023 13.7133C12.907 13.8086 12.8594 13.8562 12.8037 13.8961C12.6059 14.0377 12.319 14.0866 12.0854 14.0185C12.0196 13.9994 11.9677 13.9744 11.8638 13.9245C10.6557 13.3446 9.52354 12.5539 8.52222 11.5526Z" stroke="#077167" stroke-width="1.66667" stroke-linecap="round" stroke-linejoin="round"/>
</g>
<defs>
<clipPath id="clip0_1200_12796">
<rect width="20" height="20" fill="white"/>
</clipPath>
</defs>
</svg>
