<svg width="234" height="40" viewBox="0 0 234 40" fill="none" xmlns="http://www.w3.org/2000/svg">
<g clip-path="url(#clip0_254_637)">
<path d="M60.3854 8.49591C59.1664 7.89543 57.8092 7.59557 56.4376 7.62363H46.8254V30.4879H51.3428V21.6171H56.4376C57.8083 21.6449 59.1648 21.3478 60.3854 20.7522C61.4985 20.1999 62.4181 19.3495 63.0316 18.3055C63.6779 17.1815 64.0026 15.915 63.9731 14.6334C64.0017 13.3488 63.6771 12.0795 63.0316 10.952C62.4173 9.90622 61.4981 9.05301 60.3854 8.49591ZM58.9443 16.1174C58.7276 16.5317 58.3916 16.8785 57.9756 17.1171C57.5427 17.3575 57.0488 17.4795 56.548 17.4701H51.3428V11.767H56.5518C57.0578 11.7559 57.5571 11.8779 57.995 12.12C58.4102 12.3593 58.7429 12.7095 58.952 13.1272C59.1848 13.5963 59.3002 14.1106 59.2891 14.6296C59.2997 15.1417 59.1816 15.6487 58.9443 16.1081V16.1174Z" fill="#2E2E2E"/>
<path d="M80.7741 20.4481C81.7757 19.8809 82.5822 19.0471 83.0945 18.0489C83.6639 16.9325 83.9463 15.7025 83.9181 14.4612C83.9463 13.2192 83.6639 11.9887 83.0945 10.8716C82.5816 9.87368 81.7753 9.03998 80.7741 8.47234C79.717 7.89119 78.5134 7.59758 77.2937 7.62339H66.833V30.4879H71.3422V21.2952H74.0782L79.4729 30.4879H84.9353L79.2156 21.0756C79.7628 20.9356 80.2872 20.7244 80.7741 20.4481ZM71.3363 11.7741H76.9438C77.3808 11.7649 77.8108 11.8799 78.1793 12.1044C78.5405 12.3369 78.8233 12.6645 78.9934 13.0474C79.1932 13.4938 79.2914 13.9758 79.2815 14.4612C79.2804 14.947 79.1772 15.4278 78.9778 15.8749C78.8072 16.2575 78.5238 16.5845 78.1619 16.816C77.7998 17.0404 77.3753 17.1554 76.9438 17.1464H71.3363V11.7741Z" fill="#2E2E2E"/>
<path d="M100.639 8.68849C99.1677 7.98723 97.5413 7.62183 95.8918 7.62183C94.2423 7.62183 92.616 7.98723 91.1445 8.68849C89.7959 9.3813 88.6914 10.4292 87.9662 11.7038C87.2172 13.0041 86.8421 14.5118 86.8407 16.2266V22.8358C86.8407 24.547 87.2159 26.0546 87.9662 27.3587C88.6909 28.6337 89.7956 29.6817 91.1445 30.3739C92.616 31.0752 94.2423 31.4407 95.8918 31.4407C97.5413 31.4407 99.1677 31.0752 100.639 30.3739C101.989 29.6818 103.094 28.6338 103.819 27.3587C104.568 26.0609 104.943 24.5533 104.943 22.8358V16.2191C104.943 14.5105 104.568 13.0029 103.819 11.6962C103.092 10.4243 101.987 9.37916 100.639 8.68849ZM100.103 22.9394C100.12 23.6854 99.9414 24.4238 99.5838 25.0897C99.2528 25.6941 98.7402 26.1935 98.1098 26.5257C97.4244 26.8577 96.6647 27.0309 95.8938 27.0309C95.123 27.0309 94.3633 26.8577 93.6778 26.5257C93.0461 26.1945 92.5326 25.695 92.2018 25.0897C91.8442 24.4238 91.6662 23.6854 91.6832 22.9394V16.1117C91.6664 15.3658 91.8445 14.6274 92.2018 13.9615C92.5335 13.3583 93.047 12.8607 93.6778 12.5311C94.3633 12.1991 95.123 12.026 95.8938 12.026C96.6647 12.026 97.4244 12.1991 98.1098 12.5311C98.7402 12.8633 99.2528 13.3628 99.5838 13.9671C99.9401 14.6314 100.118 15.3677 100.103 16.1117V22.9394Z" fill="#2E2E2E"/>
<path d="M121.633 8.58066C120.238 7.94144 118.553 7.62183 116.58 7.62183H108.754V30.4879H116.563C118.591 30.4879 120.305 30.1473 121.706 29.4662C123.035 28.8505 124.135 27.8521 124.852 26.6082C125.554 25.3766 125.905 23.9405 125.904 22.2999V15.8135C125.904 14.0892 125.54 12.6112 124.812 11.3796C124.081 10.1485 122.969 9.16964 121.633 8.58066ZM121.283 22.4182C121.283 23.6671 120.882 24.6314 120.079 25.3113C119.276 25.9911 118.143 26.3317 116.678 26.3329H113.212V11.773H116.678C118.143 11.773 119.276 12.1136 120.079 12.7948C120.882 13.4758 121.283 14.4402 121.283 15.6879V22.4182Z" fill="#2E2E2E"/>
<path d="M141.487 22.781C141.487 24.1309 141.123 25.1792 140.396 25.926C139.668 26.6727 138.643 27.0454 137.321 27.0441C136.006 27.0441 134.987 26.6714 134.267 25.926C133.548 25.1805 133.187 24.1322 133.186 22.781V7.62183H128.762V22.6705C128.762 24.5183 129.095 26.0986 129.762 27.4118C130.399 28.6945 131.422 29.7434 132.686 30.4101C133.967 31.0984 135.512 31.4419 137.321 31.4406C139.129 31.4393 140.676 31.0959 141.963 30.4101C143.231 29.7437 144.258 28.6951 144.902 27.4118C145.574 26.0986 145.91 24.5183 145.912 22.6705V7.62183H141.487V22.781Z" fill="#2E2E2E"/>
<path d="M155.502 13.9883C155.769 13.3725 156.214 12.8571 156.775 12.5129C157.398 12.1586 158.102 11.9842 158.811 12.0079C159.388 11.9998 159.956 12.1493 160.46 12.4413C160.968 12.7487 161.398 13.1777 161.712 13.6925C162.081 14.2963 162.34 14.9649 162.478 15.6654H166.872C166.647 14.1245 166.131 12.6446 165.354 11.3107C164.681 10.1623 163.73 9.21596 162.595 8.56521C161.432 7.92358 160.129 7.59937 158.811 7.62304C157.099 7.62304 155.635 7.96536 154.419 8.65C153.216 9.31868 152.243 10.3584 151.634 11.6254C150.995 12.9244 150.675 14.4946 150.675 16.3362V22.743C150.675 24.5821 150.995 26.1524 151.634 27.4538C152.242 28.7191 153.216 29.756 154.419 30.4198L156.246 31.4392H158.811C160.129 31.4649 161.431 31.1406 162.594 30.497C163.726 29.843 164.675 28.8949 165.347 27.746C166.122 26.4102 166.64 24.9313 166.872 23.3912H162.47C162.345 24.0967 162.094 24.7717 161.729 25.381C161.418 25.8969 160.987 26.3239 160.476 26.6229C159.963 26.9116 159.387 27.0583 158.804 27.0487C158.097 27.0712 157.398 26.8969 156.778 26.5437C156.218 26.2014 155.775 25.6889 155.506 25.0758C155.194 24.3442 155.044 23.5498 155.066 22.7505V16.3438C155.041 15.5347 155.19 14.7301 155.502 13.9883Z" fill="#2E2E2E"/>
<path d="M167.825 11.7737H174.196V30.4879H178.604V11.7737H184.974V7.62183H167.825V11.7737Z" fill="#2E2E2E"/>
<path d="M199.52 18.588C198.295 18.1156 197.025 17.7629 195.729 17.5353C195.663 17.5263 195.599 17.513 195.535 17.4957C195.472 17.4791 195.407 17.4658 195.341 17.4561C195.299 17.4452 195.256 17.437 195.212 17.4316C195.168 17.4262 195.123 17.418 195.079 17.4071C194.252 17.2581 193.434 17.0654 192.629 16.8297C192.076 16.6642 191.574 16.3689 191.164 15.9695C190.961 15.7556 190.804 15.5038 190.703 15.2293C190.601 14.9548 190.558 14.6631 190.574 14.3717V14.3566C190.574 13.5529 190.952 12.9292 191.707 12.4852C192.464 12.0413 193.532 11.8192 194.915 11.8192C195.903 11.8309 196.882 12.0063 197.809 12.3381C198.834 12.6901 199.805 13.1762 200.696 13.7831L202.603 10.0573C201.836 9.54194 201.021 9.09972 200.169 8.73674C199.324 8.37597 198.447 8.09609 197.546 7.90103C196.684 7.71538 195.806 7.62176 194.923 7.62183C193.059 7.62183 191.469 7.90291 190.154 8.46508C188.917 8.96289 187.867 9.81881 187.144 10.9175C186.454 11.989 186.108 13.2788 186.108 14.7868V14.7905C186.108 16.4921 186.475 17.8057 187.21 18.7313C187.892 19.6189 188.824 20.294 189.891 20.6744C191.186 21.1013 192.518 21.4107 193.87 21.5989L194.233 21.646C194.261 21.6567 194.291 21.6624 194.322 21.663C194.353 21.6638 194.383 21.6689 194.412 21.6781C195.168 21.7846 195.915 21.9404 196.65 22.144C197.184 22.2884 197.671 22.5645 198.064 22.9457C198.25 23.1447 198.394 23.3776 198.488 23.6312C198.58 23.8848 198.622 24.1538 198.608 24.4229V24.4399C198.617 24.8597 198.508 25.274 198.294 25.6378C198.08 26.0016 197.767 26.3011 197.39 26.5037C196.578 26.9904 195.438 27.2337 193.968 27.2337C192.704 27.2343 191.449 27.031 190.252 26.632C189.092 26.2541 188.011 25.6751 187.06 24.9229L184.974 28.5505C185.759 29.1791 186.624 29.7054 187.547 30.1163C188.531 30.5579 189.563 30.8889 190.624 31.103L192.258 31.4407H193.968C195.887 31.4407 197.528 31.1627 198.894 30.6067C200.258 30.051 201.296 29.2435 202.006 28.1846C202.72 27.1243 203.076 25.8503 203.076 24.3625V24.3323C203.076 22.7477 202.736 21.4976 202.056 20.582C201.419 19.698 200.54 19.007 199.52 18.588Z" fill="#2E2E2E"/>
<path d="M211.651 7.62183H205.935V30.4879H211.651V7.62183Z" fill="#2E2E2E"/>
<path d="M231.546 11.705C230.859 10.4307 229.812 9.38295 228.535 8.69024C227.153 7.95894 225.604 7.59176 224.039 7.62375C222.335 7.62375 220.835 7.97925 219.54 8.69024C218.262 9.38241 217.216 10.4303 216.529 11.705C215.818 13.0052 215.463 14.5126 215.463 16.2272V22.8352C215.463 24.5462 215.818 26.0535 216.529 27.3575C217.215 28.6326 218.262 29.6806 219.54 30.3722C220.836 31.0832 222.336 31.4388 224.039 31.4388C225.604 31.4708 227.153 31.1036 228.535 30.3722C229.812 29.68 230.859 28.6322 231.546 27.3575C232.258 26.0598 232.613 24.5525 232.612 22.8352V16.2197C232.615 14.5151 232.259 13.0102 231.546 11.705ZM228.025 22.9389C228.041 23.6847 227.872 24.423 227.533 25.0888C227.22 25.6935 226.735 26.1929 226.137 26.5246C225.488 26.8565 224.768 27.0296 224.038 27.0296C223.307 27.0296 222.587 26.8565 221.938 26.5246C221.34 26.1935 220.855 25.6938 220.542 25.0888C220.202 24.4232 220.033 23.6848 220.049 22.9389V16.1122C220.033 15.3663 220.202 14.628 220.542 13.9623C220.855 13.3573 221.34 12.8577 221.938 12.5265C222.587 12.1946 223.307 12.0215 224.038 12.0215C224.768 12.0215 225.488 12.1946 226.137 12.5265C226.735 12.8582 227.22 13.3577 227.533 13.9623C227.872 14.6282 228.041 15.3665 228.025 16.1122V22.9389Z" fill="#2E2E2E"/>
<path d="M0.140381 0V39.0629H39.2032V0H0.140381ZM31.5483 16.8122C31.5483 18.0151 31.3114 19.2061 30.8511 20.3173C30.3909 21.4285 29.7163 22.4381 28.8659 23.2886C28.0154 24.1391 27.0058 24.8137 25.8947 25.2739C24.7835 25.7342 23.5926 25.9711 22.3899 25.9711H16.9538V31.4095H7.79151V13.0918H13.2315V7.65151H22.3899C23.5927 7.65151 24.7838 7.88847 25.8951 8.34887C27.0063 8.80926 28.016 9.48407 28.8666 10.3348C29.717 11.1854 30.3916 12.1953 30.8517 13.3067C31.3118 14.4182 31.5485 15.6094 31.5483 16.8122Z" fill="#0038E6"/>
</g>
<defs>
<clipPath id="clip0_254_637">
<rect width="233.143" height="40" fill="white" transform="translate(0.140381)"/>
</clipPath>
</defs>
</svg>
