<svg width="128" height="19" viewBox="0 0 128 19" fill="none" xmlns="http://www.w3.org/2000/svg">
<path d="M10.6438 0.411806L13.3414 5.89596L19.3719 6.7756C19.4484 6.78698 19.5202 6.8195 19.5793 6.8695C19.6383 6.9195 19.6823 6.985 19.7061 7.05861C19.7299 7.13222 19.7328 7.21103 19.7142 7.28615C19.6957 7.36128 19.6566 7.42974 19.6012 7.48383L15.2384 11.7517L16.2685 17.7793C16.2818 17.8555 16.2734 17.9338 16.2444 18.0055C16.2154 18.0772 16.1669 18.1394 16.1044 18.1849C16.0419 18.2304 15.9678 18.2575 15.8907 18.2631C15.8136 18.2687 15.7364 18.2526 15.6679 18.2166L10.2738 15.3714L4.87967 18.2174C4.81128 18.2536 4.73411 18.2698 4.65695 18.2643C4.57979 18.2588 4.50572 18.2317 4.44316 18.1862C4.38061 18.1407 4.33207 18.0786 4.30308 18.0068C4.27408 17.9351 4.26579 17.8567 4.27914 17.7805L5.30922 11.7517L0.945156 7.48383C0.889822 7.42974 0.850687 7.36128 0.832158 7.28615C0.81363 7.21103 0.816444 7.13222 0.840284 7.05861C0.864124 6.985 0.908042 6.9195 0.967093 6.8695C1.02614 6.8195 1.09798 6.78698 1.17452 6.7756L7.20495 5.89596L9.90387 0.411806C9.93753 0.34231 9.99008 0.283701 10.0555 0.242691C10.1209 0.201682 10.1966 0.179932 10.2738 0.179932C10.351 0.179932 10.4267 0.201682 10.4921 0.242691C10.5575 0.283701 10.6101 0.34231 10.6438 0.411806Z" fill="#FDB241"/>
<path d="M37.55 0.411806L40.2477 5.89596L46.2781 6.7756C46.3547 6.78698 46.4265 6.8195 46.4855 6.8695C46.5446 6.9195 46.5885 6.985 46.6124 7.05861C46.6362 7.13222 46.639 7.21103 46.6205 7.28615C46.602 7.36128 46.5628 7.42974 46.5075 7.48383L42.1447 11.7517L43.1747 17.7793C43.188 17.8555 43.1797 17.9338 43.1507 18.0055C43.1217 18.0772 43.0731 18.1394 43.0106 18.1849C42.9481 18.2304 42.8741 18.2575 42.7969 18.2631C42.7198 18.2687 42.6426 18.2526 42.5742 18.2166L37.1801 15.3714L31.7859 18.2174C31.7175 18.2536 31.6404 18.2698 31.5632 18.2643C31.486 18.2588 31.412 18.2317 31.3494 18.1862C31.2869 18.1407 31.2383 18.0786 31.2093 18.0068C31.1803 17.9351 31.172 17.8567 31.1854 17.7805L32.2155 11.7517L27.8514 7.48383C27.7961 7.42974 27.7569 7.36128 27.7384 7.28615C27.7199 7.21103 27.7227 7.13222 27.7465 7.05861C27.7704 6.985 27.8143 6.9195 27.8733 6.8695C27.9324 6.8195 28.0042 6.78698 28.0808 6.7756L34.1112 5.89596L36.8101 0.411806C36.8438 0.34231 36.8963 0.283701 36.9618 0.242691C37.0272 0.201682 37.1028 0.179932 37.1801 0.179932C37.2573 0.179932 37.3329 0.201682 37.3984 0.242691C37.4638 0.283701 37.5163 0.34231 37.55 0.411806Z" fill="#FDB241"/>
<path d="M64.4563 0.411806L67.1539 5.89596L73.1844 6.7756C73.2609 6.78698 73.3327 6.8195 73.3918 6.8695C73.4508 6.9195 73.4948 6.985 73.5186 7.05861C73.5424 7.13222 73.5453 7.21103 73.5267 7.28615C73.5082 7.36128 73.4691 7.42974 73.4137 7.48383L69.0509 11.7517L70.081 17.7793C70.0943 17.8555 70.0859 17.9338 70.0569 18.0055C70.0279 18.0772 69.9794 18.1394 69.9169 18.1849C69.8544 18.2304 69.7803 18.2575 69.7032 18.2631C69.6261 18.2687 69.5489 18.2526 69.4804 18.2166L64.0863 15.3714L58.6922 18.2174C58.6238 18.2536 58.5466 18.2698 58.4695 18.2643C58.3923 18.2588 58.3182 18.2317 58.2557 18.1862C58.1931 18.1407 58.1446 18.0786 58.1156 18.0068C58.0866 17.9351 58.0783 17.8567 58.0916 17.7805L59.1217 11.7517L54.7577 7.48383C54.7023 7.42974 54.6632 7.36128 54.6447 7.28615C54.6261 7.21103 54.6289 7.13222 54.6528 7.05861C54.6766 6.985 54.7205 6.9195 54.7796 6.8695C54.8386 6.8195 54.9105 6.78698 54.987 6.7756L61.0175 5.89596L63.7164 0.411806C63.75 0.34231 63.8026 0.283701 63.868 0.242691C63.9334 0.201682 64.0091 0.179932 64.0863 0.179932C64.1635 0.179932 64.2392 0.201682 64.3046 0.242691C64.37 0.283701 64.4226 0.34231 64.4563 0.411806Z" fill="#FDB241"/>
<path d="M91.3625 0.411806L94.0602 5.89596L100.091 6.7756C100.167 6.78698 100.239 6.8195 100.298 6.8695C100.357 6.9195 100.401 6.985 100.425 7.05861C100.449 7.13222 100.452 7.21103 100.433 7.28615C100.414 7.36128 100.375 7.42974 100.32 7.48383L95.9572 11.7517L96.9872 17.7793C97.0005 17.8555 96.9922 17.9338 96.9632 18.0055C96.9342 18.0772 96.8856 18.1394 96.8231 18.1849C96.7606 18.2304 96.6866 18.2575 96.6094 18.2631C96.5323 18.2687 96.4551 18.2526 96.3867 18.2166L90.9926 15.3714L85.5984 18.2174C85.53 18.2536 85.4529 18.2698 85.3757 18.2643C85.2985 18.2588 85.2245 18.2317 85.1619 18.1862C85.0994 18.1407 85.0508 18.0786 85.0218 18.0068C84.9928 17.9351 84.9845 17.8567 84.9979 17.7805L86.028 11.7517L81.6639 7.48383C81.6086 7.42974 81.5694 7.36128 81.5509 7.28615C81.5324 7.21103 81.5352 7.13222 81.559 7.05861C81.5829 6.985 81.6268 6.9195 81.6858 6.8695C81.7449 6.8195 81.8167 6.78698 81.8933 6.7756L87.9237 5.89596L90.6226 0.411806C90.6563 0.34231 90.7088 0.283701 90.7743 0.242691C90.8397 0.201682 90.9153 0.179932 90.9926 0.179932C91.0698 0.179932 91.1454 0.201682 91.2109 0.242691C91.2763 0.283701 91.3288 0.34231 91.3625 0.411806Z" fill="#FDB241"/>
<path d="M118.269 0.411806L120.966 5.89596L126.997 6.7756C127.073 6.78698 127.145 6.8195 127.204 6.8695C127.263 6.9195 127.307 6.985 127.331 7.05861C127.355 7.13222 127.358 7.21103 127.339 7.28615C127.321 7.36128 127.282 7.42974 127.226 7.48383L122.863 11.7517L123.893 17.7793C123.907 17.8555 123.898 17.9338 123.869 18.0055C123.84 18.0772 123.792 18.1394 123.729 18.1849C123.667 18.2304 123.593 18.2575 123.516 18.2631C123.439 18.2687 123.361 18.2526 123.293 18.2166L117.899 15.3714L112.505 18.2174C112.436 18.2536 112.359 18.2698 112.282 18.2643C112.205 18.2588 112.131 18.2317 112.068 18.1862C112.006 18.1407 111.957 18.0786 111.928 18.0068C111.899 17.9351 111.891 17.8567 111.904 17.7805L112.934 11.7517L108.57 7.48383C108.515 7.42974 108.476 7.36128 108.457 7.28615C108.439 7.21103 108.441 7.13222 108.465 7.05861C108.489 6.985 108.533 6.9195 108.592 6.8695C108.651 6.8195 108.723 6.78698 108.8 6.7756L114.83 5.89596L117.529 0.411806C117.563 0.34231 117.615 0.283701 117.681 0.242691C117.746 0.201682 117.822 0.179932 117.899 0.179932C117.976 0.179932 118.052 0.201682 118.117 0.242691C118.183 0.283701 118.235 0.34231 118.269 0.411806Z" fill="#FDB241"/>
</svg>
