<svg width="201" height="35" viewBox="0 0 201 35" fill="none" xmlns="http://www.w3.org/2000/svg">
<g clip-path="url(#clip0_1192_12755)">
<g clip-path="url(#clip1_1192_12755)">
<path d="M55.0958 10.6252C51.3301 10.6433 48.2625 13.7384 48.2798 17.5922C48.2971 21.4459 51.3953 24.5119 55.1611 24.4947C58.9268 24.4774 61.9952 21.3815 61.9771 17.5293C61.959 13.6771 58.8615 10.6087 55.0942 10.6268L55.0958 10.6252ZM55.1477 21.6684C54.0801 21.6747 53.0541 21.2557 52.2955 20.5049C51.5368 19.7541 51.1163 18.7313 51.1045 17.6637C51.0927 16.5961 51.5172 15.5701 52.268 14.8115C53.0188 14.0529 54.0416 13.6323 55.1092 13.6205C56.1768 13.6087 57.2027 14.0332 57.9614 14.784C58.72 15.5348 59.1406 16.5576 59.1524 17.6252C59.1634 19.7675 57.2892 21.6574 55.1477 21.6684ZM70.3521 13.8917C68.3827 13.9011 66.8489 15.5348 66.8584 17.5041L66.8898 24.0961L63.893 24.1102L63.8324 11.0104L66.8293 10.9963L66.8395 13.0505C66.8395 13.0505 68.1131 10.9907 70.6823 10.979L71.5392 10.9742L71.5533 13.8846L70.3521 13.8917ZM40.4575 11.122L42.7263 20.1016L45.0817 11.1L48.0785 11.0867L44.371 24.2116L41.4606 24.225L39.1068 15.0756L36.838 24.2462L33.9268 24.2596L30.0133 11.1779L32.9237 11.1645L35.5337 20.1425L37.6328 11.1425L40.4575 11.122ZM80.2962 16.9286C82.3442 15.7211 83.7907 13.4876 83.7789 10.9192L80.7821 10.9334C80.7931 13.1598 79.0022 14.9664 76.8623 14.9742L76.4338 14.9758L76.3867 4.61655L73.3898 4.6307L73.4818 24.0646L76.4771 24.0513L76.4488 17.8877L76.7907 17.8862C77.1335 17.8846 77.4771 18.0544 77.5643 18.3107L81.786 24.0261L85.2962 24.0104L80.2962 16.9286Z" fill="#4B4B4B"/>
<path d="M23.0763 10.7761C19.8239 10.7918 17.3506 12.9436 16.4253 16.372C14.8727 13.9821 13.6612 11.2486 12.9662 8.94043L9.54247 8.95615L9.58492 18.0308C9.58869 18.8936 9.24971 19.7226 8.64249 20.3356C8.03528 20.9485 7.20952 21.2953 6.34672 21.2997C5.48392 21.3034 4.65494 20.9645 4.04197 20.3573C3.42901 19.75 3.08223 18.9243 3.07786 18.0615L3.03462 8.98681L-0.390686 9.00254L-0.348233 18.0772C-0.330151 21.8429 2.67849 24.8272 6.36087 24.8091C10.0433 24.791 13.026 21.7808 13.0087 18.0143L13.0008 16.4734C13.691 17.839 14.5543 19.2903 15.5032 20.5709L13.4096 30.5968L16.919 30.5811L18.4285 23.2965C19.8019 24.1472 21.3373 24.6527 23.1423 24.644C26.9096 24.6259 29.978 21.5308 29.9583 17.5921C29.944 15.7775 29.2124 14.0422 27.9231 12.765C26.6339 11.4878 24.8918 10.7726 23.077 10.7753L23.0763 10.7761ZM23.125 21.1354C21.7555 21.1417 20.3836 20.5489 19.2665 19.6118L19.6022 18.2415V18.1629C19.8538 16.7054 20.6101 14.2195 23.1792 14.2085C24.0851 14.207 24.9549 14.5633 25.5994 15.2C26.2438 15.8366 26.6107 16.702 26.6203 17.6079C26.5432 19.5772 24.9245 21.1259 23.1258 21.1346L23.125 21.1354Z" fill="#6FDA44"/>
</g>
<path d="M110.245 3.94838C110.891 3.57505 111.625 3.37851 112.372 3.37851C113.118 3.37851 113.852 3.57505 114.498 3.94838L123.137 8.93571C123.784 9.30904 124.321 9.84598 124.694 10.4926C125.068 11.1392 125.264 11.8727 125.264 12.6193V22.5961C125.264 23.3428 125.068 24.0762 124.694 24.7228C124.321 25.3695 123.784 25.9064 123.137 26.2797L114.498 31.2671C113.852 31.6404 113.118 31.8369 112.372 31.8369C111.625 31.8369 110.891 31.6404 110.245 31.2671L101.606 26.2797C100.959 25.9064 100.422 25.3695 100.049 24.7228C99.6755 24.0762 99.479 23.3428 99.479 22.5961V12.6193C99.479 11.8727 99.6755 11.1392 100.049 10.4926C100.422 9.84598 100.959 9.30904 101.606 8.93571L110.245 3.94838Z" fill="#1F57C3"/>
<path d="M113.181 10.7402L114.444 14.1442L117.937 14.3398C118.112 14.3495 118.278 14.4139 118.414 14.5238C118.552 14.6344 118.654 14.7865 118.708 14.9598C118.763 15.1338 118.767 15.3197 118.719 15.4958C118.673 15.6694 118.576 15.8255 118.442 15.9445L115.721 18.2457L116.63 21.7847C116.672 21.9633 116.663 22.1503 116.603 22.3238C116.545 22.4945 116.437 22.644 116.293 22.7534C116.153 22.8592 115.984 22.9183 115.808 22.9221C115.633 22.9259 115.461 22.8743 115.316 22.7747L112.372 20.7808L109.432 22.7609C109.289 22.8611 109.118 22.9139 108.943 22.9116C108.769 22.9093 108.599 22.8521 108.458 22.7481C108.314 22.6404 108.206 22.4923 108.146 22.3228C108.084 22.1505 108.073 21.9642 108.113 21.7857L109.013 18.2616L106.302 15.9434C106.168 15.8246 106.072 15.6689 106.025 15.4958C105.978 15.3197 105.981 15.1338 106.036 14.9598C106.089 14.7887 106.191 14.637 106.329 14.5238C106.465 14.414 106.632 14.3497 106.806 14.3398L110.299 14.1442L111.562 10.7402C111.626 10.572 111.738 10.4263 111.884 10.3213C112.026 10.2196 112.197 10.1649 112.372 10.1649C112.547 10.1649 112.717 10.2196 112.86 10.3213C113.006 10.4263 113.117 10.572 113.181 10.7402Z" stroke="white" stroke-width="1.5951" stroke-linecap="round" stroke-linejoin="round"/>
<path d="M134.156 23.6077V14.4667H130.747V12.9631H139.322V14.4667H135.928V23.6077H134.156ZM142.552 23.831C140.17 23.831 138.726 22.1785 138.726 19.8114C138.726 17.4442 140.17 15.7917 142.552 15.7917C144.934 15.7917 146.378 17.4442 146.378 19.8114C146.378 22.1785 144.934 23.831 142.552 23.831ZM142.552 22.5507C144.041 22.5507 144.815 21.3746 144.815 19.8114C144.815 18.2333 144.041 17.0721 142.552 17.0721C141.063 17.0721 140.289 18.2333 140.289 19.8114C140.289 21.3746 141.063 22.5507 142.552 22.5507ZM151.85 15.7917C153.786 15.7917 155.23 17.3103 155.23 19.8114C155.23 22.3125 153.786 23.831 151.85 23.831C150.659 23.831 149.915 23.2653 149.513 22.6996H149.483V26.1981H147.905V16.0002H149.483V16.8934H149.513C149.915 16.3575 150.659 15.7917 151.85 15.7917ZM151.553 22.5507C152.922 22.5507 153.652 21.3001 153.652 19.8114C153.652 18.3226 152.922 17.0721 151.553 17.0721C150.287 17.0721 149.498 18.1142 149.498 19.8114C149.498 21.4937 150.287 22.5507 151.553 22.5507ZM160.259 23.6077V12.9631H164.799C166.988 12.9631 168.402 14.0797 168.402 16.015C168.402 17.5038 167.643 18.3673 166.422 18.665V18.6948C168.878 19.1563 167.985 23.3248 168.551 23.5035V23.6077H166.69C166.199 23.1611 167.196 19.4987 164.636 19.4987H162.03V23.6077H160.259ZM162.03 14.4667V17.9802H164.427C165.514 17.9802 166.645 17.7718 166.645 16.2235C166.645 14.69 165.514 14.4667 164.427 14.4667H162.03ZM174.737 17.9951C174.737 17.4442 174.41 17.0274 173.368 17.0274C172.117 17.0274 171.655 17.4145 171.581 18.3971H170.063C170.137 16.9381 171.075 15.7917 173.368 15.7917C175.05 15.7917 176.3 16.4319 176.3 18.4566V22.0743C176.3 22.6102 176.42 22.8931 177.03 22.8335V23.5779C176.673 23.7119 176.42 23.7417 176.122 23.7417C175.288 23.7417 174.901 23.4439 174.752 22.6996H174.722C174.246 23.3695 173.382 23.831 172.206 23.831C170.658 23.831 169.705 22.9378 169.705 21.6574C169.705 19.99 170.941 19.469 172.846 19.0968C174.023 18.8735 174.737 18.7246 174.737 17.9951ZM172.549 22.5953C173.844 22.5953 174.737 21.9552 174.737 20.7195V19.5732C174.484 19.7518 173.874 19.9305 173.144 20.0793C171.849 20.3622 171.283 20.7344 171.283 21.5086C171.283 22.2083 171.7 22.5953 172.549 22.5953ZM181.878 17.2805H180.449V21.4043C180.449 22.2678 180.866 22.372 181.878 22.3125V23.5928C181.565 23.6672 181.223 23.7119 180.806 23.7119C179.556 23.7119 178.871 23.1462 178.871 21.5383V17.2805H177.769V16.0002H178.871V13.6033H180.449V16.0002H181.878V17.2805ZM186.753 22.5507C188.048 22.5507 188.569 21.7468 188.703 21.2852H190.266C189.879 22.7293 188.748 23.831 186.797 23.831C184.43 23.831 182.986 22.1934 182.986 19.8114C182.986 17.34 184.43 15.7917 186.723 15.7917C189.179 15.7917 190.385 17.5038 190.385 20.2133H184.549C184.549 21.4937 185.368 22.5507 186.753 22.5507ZM186.723 17.0274C185.457 17.0274 184.549 17.876 184.549 19.0521H188.822C188.822 17.876 187.988 17.0274 186.723 17.0274ZM197.248 12.9631H198.811V23.6077H197.248V22.7293H197.218C196.817 23.2504 196.072 23.831 194.896 23.831C192.946 23.831 191.502 22.3125 191.502 19.8114C191.502 17.3103 192.946 15.7917 194.896 15.7917C196.072 15.7917 196.817 16.3426 197.218 16.9232H197.248V12.9631ZM195.164 22.5507C196.444 22.5507 197.233 21.4937 197.233 19.8114C197.233 18.1142 196.444 17.0721 195.164 17.0721C193.794 17.0721 193.065 18.3226 193.065 19.8114C193.065 21.3001 193.794 22.5507 195.164 22.5507Z" fill="#333333"/>
</g>
<defs>
<clipPath id="clip0_1192_12755">
<rect width="200.449" height="34.5911" fill="white" transform="translate(0 0.312256)"/>
</clipPath>
<clipPath id="clip1_1192_12755">
<rect width="84.9055" height="47.1697" fill="white" transform="translate(0 -5.97717)"/>
</clipPath>
</defs>
</svg>
