<svg width="151" height="46" viewBox="0 0 151 46" fill="none" xmlns="http://www.w3.org/2000/svg">
<g clip-path="url(#clip0_1104_9559)">
<path d="M98.2059 11.9555C91.4937 11.987 86.0258 17.3891 86.0566 24.1153C86.0875 30.8415 91.61 36.1928 98.3222 36.1627C105.034 36.1325 110.504 30.729 110.471 24.0056C110.439 17.2821 104.918 11.9267 98.2031 11.9582L98.2059 11.9555ZM98.2984 31.2298C96.3954 31.2408 94.5667 30.5095 93.2145 29.1991C91.8622 27.8887 91.1125 26.1035 91.0915 24.2402C91.0705 22.3768 91.8272 20.5862 93.1654 19.2621C94.5037 17.938 96.3268 17.2039 98.2297 17.1833C100.133 17.1627 101.961 17.9037 103.314 19.2141C104.666 20.5245 105.416 22.3096 105.437 24.173C105.456 27.912 102.116 31.2106 98.2984 31.2298ZM125.4 17.6567C121.889 17.6732 119.155 20.5245 119.172 23.9616L119.228 35.467L113.886 35.4917L113.779 12.6278L119.12 12.6031L119.139 16.1885C119.139 16.1885 121.409 12.5935 125.988 12.5729L127.516 12.5647L127.541 17.6443L125.4 17.6567ZM72.1137 12.8227L76.1579 28.4952L80.3562 12.7842L85.6979 12.7609L79.0894 35.6687L73.9018 35.692L69.7063 19.7231L65.6621 35.7291L60.4731 35.7524L53.4974 12.9201L58.6851 12.8968L63.3374 28.5665L67.0788 12.8583L72.1137 12.8227ZM143.125 22.9572C146.775 20.8496 149.353 16.9514 149.332 12.4687L143.991 12.4934C144.01 16.3792 140.818 19.5324 137.004 19.5461L136.24 19.5489L136.156 1.46826L130.814 1.49296L130.978 35.4121L136.317 35.3888L136.267 24.6313L136.876 24.6285C137.487 24.6258 138.1 24.9221 138.255 25.3695L145.78 35.3449L152.037 35.3174L143.125 22.9572Z" fill="#4B4B4B"/>
<path d="M41.1324 12.2191C35.3352 12.2465 30.9267 16.002 29.2774 21.9859C26.5098 17.8146 24.3504 13.0437 23.1117 9.01514L17.009 9.04258L17.0847 24.8811C17.0914 26.387 16.4872 27.8339 15.4048 28.9037C14.3225 29.9736 12.8506 30.5788 11.3127 30.5864C9.77483 30.593 8.29719 30.0014 7.20461 28.9416C6.11203 27.8818 5.49391 26.4405 5.48612 24.9346L5.40905 9.09609L-0.696411 9.12354L-0.62074 24.9621C-0.588511 31.5346 4.77426 36.7432 11.3379 36.7117C17.9016 36.6801 23.2182 31.4262 23.1873 24.8523L23.1733 22.1629C24.4037 24.5463 25.9423 27.0793 27.6337 29.3145L23.902 46.8133L30.1574 46.7859L32.8479 34.0717C35.296 35.5563 38.0327 36.4386 41.2501 36.4235C47.9651 36.3919 53.4344 30.9899 53.3994 24.1155C53.3738 20.9482 52.0697 17.9195 49.7717 15.6904C47.4737 13.4613 44.3685 12.2129 41.1338 12.2177L41.1324 12.2191ZM41.2193 30.2997C38.7782 30.3106 36.3329 29.2761 34.3417 27.6405L34.94 25.2488V25.1116C35.3885 22.5677 36.7365 18.229 41.316 18.2098C42.9306 18.2072 44.4811 18.8291 45.6297 19.9403C46.7784 21.0515 47.4325 22.5619 47.4494 24.1429C47.3121 27.5801 44.4268 30.2832 41.2207 30.2983L41.2193 30.2997Z" fill="#6FDA44"/>
</g>
<defs>
<clipPath id="clip0_1104_9559">
<rect width="151" height="45" fill="white" transform="translate(0 0.978516)"/>
</clipPath>
</defs>
</svg>
