<svg width="22" height="22" viewBox="0 0 22 22" fill="none" xmlns="http://www.w3.org/2000/svg">
<path d="M0 0.257812V21.7424H21.4846V0.257812H0ZM17.2743 9.50454C17.2743 10.1661 17.144 10.8211 16.8909 11.4323C16.6378 12.0435 16.2667 12.5987 15.799 13.0665C15.3312 13.5343 14.776 13.9054 14.1649 14.1585C13.5537 14.4116 12.8987 14.5419 12.2372 14.5419H9.24735V17.533H4.20812V7.45829H7.2001V4.46614H12.2372C12.8988 4.46614 13.5539 4.59647 14.1651 4.84969C14.7763 5.1029 15.3316 5.47405 15.7994 5.94193C16.2671 6.4098 16.6382 6.96524 16.8912 7.57652C17.1443 8.18781 17.2745 8.84297 17.2743 9.50454Z" fill="#0038E6"/>
</svg>
